<?xml version="1.0" encoding="utf-8"?>
<svg version="1.1" id="Layer_1" xmlns="http://www.w3.org/2000/svg" xmlns:xlink="http://www.w3.org/1999/xlink" x="0px" y="0px"
	 viewBox="0 0 1698.387 1693.633" style="enable-background:new 0 0 1698.387 1693.633;" xml:space="preserve">
<g>
	<path d="M580.95,275.25c21.334,45.908,13.597,117.852,17.083,127.314l0.132,2.949l0.944,0.663l0.065,1.163l29.29,20.433
		l0.003-0.003c10.199,7.116,19.719,13.417,25.72,17.092c1.419,2.472,3.801,5.038,3.863,2.271
		c16.244,8.95,11.927-126.06,0.82-162.736c-14.173-54.733-32.394-78.994-39.63-94.628l-5.482,5.399
		c-17.627,8.741-42.558,41.932-42.231,49.893C569.985,251.626,572.731,257.563,580.95,275.25z"/>
	<path d="M474.893,1472.935h0.005c14.613,21.244,18.024,33.374,72.374-22.29c-28.615-42.116-46.914-90.63-63.696-141.652
		c-63.735,0-69.01-0.744-70.297,3.018C410.193,1313.366,435.182,1415.215,474.893,1472.935z"/>
	<path d="M499.201,338.773c-9.002,0.617-69.987,4.121-76.433,7.419l-1.143,0.028l-0.34,1.583
		c-9.761,13.672-14.879,69.588-15.992,86.135c-3.346,7.905-4.094,94.429,7.114,126.022c2.135,6.02,0.429,0.423,4.834,15.574
		c1.009-0.161,57.264-8.052,65.024-20.123c2.532,1.498,2.044,0.66,1.488-1.811c0.835-1,0.797-1.09-2.394-13.983
		C467.227,446.688,483.008,396.29,499.201,338.773z"/>
	<path d="M937.132,1351.824c0.033-7.167,2.292-494.081,2.325-501.248l-4.579-0.49v-1.103c-22.163,0.835-15.387-4.392-72.097,1.341
		c0,567.272,0.681,336.896-0.077,499.213h5.714c0.668,0.874,1.414,1.279,2.248,1.507v0.021
		C880.522,1353.759,924.671,1352.121,937.132,1351.824z"/>
	<path d="M662.444,731.772c34.253-6.331,50.104-17.952,63.375-46.449c41.473-89.075-46.878-217.52-134.904-261.214
		c-1.349-0.974-2.444-1.529-3.419-1.678c-2.865-1.365-5.762-2.663-8.681-3.913c0.427-1.245-0.175-1.637-1.972-0.842
		c-8.178-3.416-16.56-6.377-25.123-8.877c0.108-1-42.184-10.624-49.885-7.939l-3.922-0.584l-0.283,1.715l-1.192-0.163l0.51,3.799
		c-3.159,6.605-4.101,18.953-8.908,63.892c37.199,7.318,82.915,12.697,129.662,66.408c46.031,54.241,48.612,114.843,41.187,122.273
		c-6.433,6.435-38.848,1.919-70.554-9.833c-15.302-5.672-23.364-8.582-29.797-9.2l-2.855-1.035l-2.449,1.062
		c-15.882,1.778-59.956,26.331-59.956,33.668c0,11.187,81.371,51.768,118.525,59.109h-0.003
		C636.508,736.853,630.041,737.766,662.444,731.772z"/>
	<path d="M385.14,483.988c0.142-61.385,11.376-71.733-5.043-71.733c-30.964,0-164.785,52.57-173.544,76.879
		c-5.421,8.931,9.902,26.002,16.939,33.636h0.006c6.548,7.106,6.999,7.177,9.038,9.633l-0.003,0.025
		c2.996,3.611,4.696,5.495,6.003,5.575c1.893,1.742,5.575,5.146,6.754,4.902c2.372,0.539,27.283-14.275,30.028-15.931
		c14.552-8.774,43.691-21.234,64.757-27.686C363.447,492.134,385.14,483.988,385.14,483.988z"/>
	<path d="M592.003,1109.603c-14.247-14.25-28.182-25.909-30.962-25.909c-8.513,0-47.077,40.425-51.143,44.568
		c64.097,69.23,86.863,102.66,87.022,221.273h2.201c0.257,0.718,0.528,1.241,0.807,1.52l-0.003-0.018
		c3.912,3.926,53.332,4.233,63.433-1.478h5.668v-0.025h1.154C667.187,1304.615,674.097,1191.716,592.003,1109.603z"/>
	<path d="M109.201,826.845l-0.006-0.016c18.043,5.443,546.355,4.418,636.429,4.51v-0.069h0.041c0-1.6-0.041-7.058-0.041-72.029
		h-0.005v-0.005c-552.926,0-615.453,0.935-621.91-6.844c-11.634-14.017-0.011-76.671,45.155-134.091
		c-21.409-23.925-33.958-38.72-42.912-43.778l-6.252-6.507c-12.554,11.796-10.064,9.06-12.748,11.933
		c-0.233,0.003-0.349,0.13-0.349,0.376C55.135,636.441,1.627,794.45,109.201,826.845z"/>
	<path d="M470.226,228.628c-4.913,8.985-0.265,7.902,80.063,7.902c44.846-47.003,108.757-110.371,172.788-119.386
		c37.516-5.283,40.445-2.317,40.573,119.388c7.15,0,60.427,0,67.59,0l-0.003-3.739l0.688,0.043
		c-2.567-106.006,5.914-134.212-31.618-169.473c-12.429-11.678-18.259-13.501-50.861-15.895
		c-55.215-4.055-101.893,10.588-155.754,50.02c-1.177-0.471-1.535-0.227-0.92,0.676c-55.289,40.705-113.209,113.416-122.536,130.469
		L470.226,228.628z"/>
	<path d="M531.221,630.835c36.613-20.475,80.255-63.198,79.123-72.575c0.274-1.707-0.428-3.799-0.82-4.218
		c-6.962-14.864-38.061-42.211-45.501-42.64l-0.041-0.029l-0.027,0.025c-4.178-0.168-23.341,19.258-26.757,22.84
		c-14.527,15.232-33.246,28.289-56.156,39.169c-38.924,18.485-40.658,16.559-136.463,20.228c0,9.276,0,66.913,0,76.191
		C404.625,665.684,471.844,664.04,531.221,630.835z"/>
	<path d="M554.013,253.394c-138.126,1.324-142.869,0.682-151.897,8.851c-12.925,11.697-39.506,63.4-39.506,69.526h0.003
		c0,0.16,0.271,0.286,0.768,0.381c-0.651,6.35-5.649-0.611,120.2-4.075l96.197-2.646
		C573.893,296.007,571.184,291.232,554.013,253.394z"/>
	<path d="M1173.379,320.508l4.518-0.564c-5.153-8.845-30.285-54.329-36.43-65.402c-101.538-1.065-77.661-1.264-188.568,0v36.049
		l0.003-0.003v36.049C1167.109,325.993,1170.849,324.997,1173.379,320.508z"/>
	<path d="M1167.395,700.404c30.488-17.967,83.33-66.301,101.911-103.597c14.758-29.62,32.376-90.718,23.772-99.812l0.056-1.224
		l-1.988-0.244c-7.299-4.093-42.962-6.669-52.16-6.669c-35.018,0,7.783,40.587-67.812,115.41
		c-59.668,59.062-99.071,53.544-133.5,53.569c-0.471-1.116-0.911-2.434-1.316-3.9c1.094-45.194,5.605-52.823,23.484-97.083
		c-19.408-42.573-32.117-69.276-32.117-69.276l-2.146,2.501c-17.211-3.404-136.024,209.729,2.84,240.47l-0.005-0.003
		C1071.187,740.017,1117.063,730.067,1167.395,700.404z"/>
	<path d="M1508.296,614.196c-53.555-47.246-52.451-45.393-54.521-45.5l-2.353-1.906l-1.18,0.612
		c-4.479-1.292-7.124,1.71-10.747,4.681c-3.751,1.38-7.831,3.125-11.906,5.142c-24.744,12.246-81.705,20.302-116.114,16.424
		c-19.369-2.183-20.096-1.788-32.026,17.458c-30.617,49.403-54.177,47.509-1.053,53.551l0.003,0.003
		C1403.352,678.867,1460.146,641.906,1508.296,614.196z"/>
	<path d="M1263.829,306.123c-0.116-9.247-38.567-101.115-61.241-101.139c-11.326-0.009-47.604,26.027-48.31,37.986
		c-0.644,5.893,6.495,16.372,9.991,21.564c15.393,22.863,32.98,64.848,40.779,97.351l0.003,0.003l5.596,23.334
		c8.55,0,71.611,0.482,74.536-1.568c1.459-0.326,1.282-0.349,0.88-1.907C1288.444,379.715,1264.841,309.112,1263.829,306.123z"/>
	<path d="M1371.968,682.803c0,7.307,0,159.246,0,166.553c76.99,0,70.686-0.006,72.103,0.011c0-7.931,0-173.246,0-181.223
		l-0.005,0.001v-2.151C1392.763,678.268,1393.043,678.135,1371.968,682.803z"/>
	<path d="M1189.07,566.409l-0.276-0.299l0.032-0.031c-17.031-18.28-49.401-51.491-62.199-76.751
		c-13.901-27.433-24.859-83.209-24.933-113.636c-0.023-7.661-0.193-1.584,0.987-30.987l-3.82,0.149
		c-0.455-0.758,0.923-0.224-15.281-2.576c-15.706-2.279-42.125,2.402-55.286,2.402l0.054,0.623l-1.189,0.126
		c1.5,22.096,4.316,78.49,10.779,113.235c15.021,80.7,93.694,154.053,100.552,151.797c3-0.723,13.318-8.827,24.39-19.11l1.257,0.082
		l-0.179-1.088C1165.461,588.939,1163.92,590.402,1189.07,566.409z"/>
	<path d="M1266.061,255.611c-3.878,1.459-4.718-1.208,22.639,72.65c206.691,44.821,184.037,105.744,236.657,161.967
		c0.092,1.12,0.594,1.579,1.395,1.429c2.333,2.285,8.493,7.116,13.503,11.843l-0.003-0.005
		c17.73,16.729,33.553,30.417,35.171,30.417c1.615,0.003,4.332-12.026,6.041-26.731c9.558-82.347-66.279-181.151-169.786-221.201
		C1349.515,261.928,1266.864,250.023,1266.061,255.611z"/>
	<path d="M862.331,741.216c10.484,0,62.009,0,72.55,0v-0.011h4.5c0-11.191,0-610.821,0-619.649
		c63.957-16.832,129.563,43.058,138.25,42.672c0.483-0.025,1.582-0.621,3.151-1.668c1.195,0.294,2.308,0.184,2.347-1.188
		c2.972-1.435,46.757-40.834,47.759-41.731c-9.466-8.208-36.508-34.062-79.595-53.292c-0.166-0.384-0.621-0.584-1.326-0.6
		c-13.926-6.148-37.465-18.488-89.049-18.488c-55.104,0-68.735,14.644-87.282,46.199c-0.921-0.588-1.39,0.269-1.598,2.719
		l-7.003,11.915c-0.84,196.722-1.846,176.768-2.065,335.779l-0.005,0.011c-0.352,259.423-0.203,195.347-0.639,297.32h0.006
		L862.331,741.216z"/>
	<path d="M849.263,759.233c0,10.461,0,61.646,0,72.098c10.652,0,489.851,0.003,504.688,0.003c0-10.478,0-61.683,0-72.097h-0.005
		v-0.003c-526.03,0-456.862,0.056-500.569-0.148l0.004,0.148H849.263z"/>
	<path d="M1346.814,492.341c8.342,2.186,7.134-11.124,7.134-70.709l-2.19-0.562l-0.072-2.057
		c-33.09-6.848-88.974-19.546-127.532-19.931c-33.359-0.353-100.163,11.617-101.905,18.474c-1.121,0.519-2.058-0.026,0.706,10.832
		c18.438,108.534,11.287,12.086,181.421,55.383l-0.005,0.003C1325.593,489.175,1339.236,493.164,1346.814,492.341z"/>
	<path d="M1227.167,1465.593l5.679-7.907c-0.058,0-84.177,0-84.749,0l-0.008,0.008h-0.332
		c-47.488,47.018-115.708,121.367-186.276,116.324l-19.841-1.419c-0.307-13.996-2.215-100.906-2.523-114.905
		c-76.559,0-63.309,0.114-77.247-0.387c0.083,2.271-0.011-1.061,0.619,22.891l-0.778,0.031
		c3.823,56.565-5.351,129.759,47.124,156.69v-0.001c11.573,5.927,24.948,11.6,63.975,8.794c39.203-1,43.76-2.305,83.825-21.832
		C1157.099,1574.918,1224.912,1471.83,1227.167,1465.593z"/>
	<path d="M1443.188,1261.711l0.25-1.916c-8.155,3.268-8.95,2.127-23.334,8.292c-38.335,16.43-52.64,9.744-52.64,24.223
		c0,15.76-18.391,75.983-32.01,104.827c-17.486,37.026-55.533,78.057-88.851,95.816c-2.817,1.501-5.668,3.183-8.541,5.001
		c-15.417,4.807-74.456,70.346-73.293,73.532c-0.279,0.665,0.504,1.404,1.068,1.859c-0.088,0.861,0.661,1.238,2.223,1.394
		c1.283,0.658,2.839,1.283,4.517,1.779l-0.003-0.001c18.538,5.496,69.332-1.407,69.024-2.177
		c43.699-9.588,136.967-63.422,179.196-192.059C1430.282,1353.374,1445.904,1268.722,1443.188,1261.711z"/>
	<path d="M1316.963,1210.225c-0.465,0.137-3.714,0.776-4.194,0.873c1.12,25.484,0.811,13.201-0.995,35.919l-0.003,0.001
		c-1.077,13.57-1.462,22.207-1.009,27.501c-0.035,0.104-0.069,0.208-0.104,0.3v0.012c-1.798,4.679-2.469,6.857,2.505,6.55
		c3.137,2.193,45.862-10.338,52.592-12.279c70.644-20.375,125.081-53.51,126.718-64.826c5.714-11.484-23.296-38.868-37.566-53.971
		l-0.217,0.115l-0.474-0.546l-0.432,0.308l-0.188-0.182c-29.476,18.536-70.841,37.63-99.651,46.593
		C1351.312,1197.412,1318.079,1207.738,1316.963,1210.225z"/>
	<path d="M844.788,868.342v-5.218l-0.03,0v-0.241c-192.647,0-70.059,0.452-500.177-2.262v37.176l0.008-0.001
		c0.125,24.782-0.027,23.825-0.345,30.377h0.359v6.797c9.389,0,489.251,0.011,500.155,0.011v-0.011h4.527
		C849.225,914.867,849.976,870.214,844.788,868.342z"/>
	<path d="M380.635,1434.844c16.212,3.063,40.794,5.056,50.214,4.459c1.291,1.519,1.836,1.389,1.682-0.156
		c3.28-0.428,5.361,6.497-23.734-73.3c-32.34-6.537-48.618-9.337-72.247-17.055c-105.012-35.35-123.9-94.323-150.928-127.465
		c-19.728-26.055-37.289-39.673-61.437-61.246l-1.039,3.858c-7.658,2.139-10.326,50.415-2.304,78.012
		c12.155,41.816,51.489,94.613,95.316,127.946c35.868,27.278,100.622,52.847,164.472,64.944L380.635,1434.844z"/>
	<path d="M641.914,1460.59c0.945-5.025-79.286-1.819-80.286-1.801l-0.95,0.981c-5.292,1.606-7.545,4.449-10.838,9.474
		c-9.162,13.98-43.487,36.333-57.639,37.921c-20.18,1.682-53.873-20.973-70.044-33.294c-21.7-16.534-33.203-21.407-73.068-30.951
		c-26.021-6.231-47.968-10.716-48.772-9.96c-0.215,0.201-0.293,0.586-0.271,1.105c-0.47,0.234-0.528,0.541-0.506,0.993
		c-0.885,3.757,48.336,101.211,148.153,138.315h-0.003c24.831,9.231,71.235,5.256,95.89-6.741
		C603.99,1537.235,642.913,1461.89,641.914,1460.59z"/>
	<path d="M1028.201,1439.672l-0.918-3.907c0.95-0.741,1.071-1.616,0.674-2.65c-4.742-12.356-9.117-45.761-14.002-54.076
		l-1.103-4.697l-3.923-0.698c-11.238-7.576-26.964-5.524-159.664-6.082v2.249l-0.913,0.018l-1.275,34.923l-0.003,0.001
		l-1.272,34.922C851.812,1439.675,1017.05,1439.672,1028.201,1439.672z"/>
	<path d="M1153.932,1071.168l0.232,0.122c-10.385,6.724-20.597,14.359-30.964,23.032c-44.266,37.03-44.661,38.632-16.729,68.165
		c0.005,0.005,23.275,24.609,23.279,24.613c83.03-76.086,94.297-83.362,224.17-87.657l0.001-2.306h0.076
		c0-76.227-0.049,1.227-0.049-71.187h-0.001l0.001-2.207C1208.013,1034.044,1205.625,1044.972,1153.932,1071.168z"/>
	<path d="M1584.18,867.854c-45.878-6.112-131.106-5.018-618.356-5.018l0.001,0.038h-6.573l-0.212-2.295l-0.052,2.295h-6.087
		c0,10.461,0,61.646,0,72.097c438.068,0,614.714-0.818,620.939,5.407c12.488,12.488,7.61,65-45.358,134.45l1.314,1.446l-0.203,0.268
		c7.2,7.291,2.939,2.742,20.894,22.498h-0.003c17.162,18.884,23.072,22.02,26.076,25.062l0.089-0.083l0.366,0.385l0.585-0.661
		c2.898-0.141,10.866-7.372,18.022-16.413C1675.91,1005.917,1666.973,871.417,1584.18,867.854z"/>
	<path d="M1531.43,1101.702c-26.76-27.388-48.445-38.114-69.338-49.821c0,3.244,0,78.886,0,82.369
		c47.785,52.283,46.281,52.891,46.714,77.609c-6.179,41.61-41.523,62.741-54.346,101.38l-0.961-1.995
		c-0.405,6.738-14.792,65.98-16.123,70.977l-0.003,0.001c-2.021,7.601-1.508,12.391,1.322,12.391
		c9.591,0,71.357-45.155,86.482-63.223c42.158-50.366,62.772-101.812,56.652-141.375
		C1577.135,1159.687,1554.714,1123.912,1531.43,1101.702z"/>
	<path d="M1134.001,1420.176l9.153,19.473h0.058l0.232,0.586c137.585-1.972,143.035,1.483,156.02-15.171
		c6.867-6.539,41.344-64.075,34.171-65.382c-0.383-0.635-1.337-0.7-2.946-0.364c-0.362-0.162-0.903-0.073-1.629,0.249
		c-23.101,0.768-34.002,8.008-210.432,8.008c2.378,12.676,4.665,29.847,15.372,52.625V1420.176z"/>
	<path d="M202.64,1072.986c-2.596,1.964-4.363,3.432-4.919,5.139l-3.839,2.423c19.875,18.062,8.521,7.472,51.483,47.716l0.681-0.312
		l0.026,0.024c74.233-35.169,98.436-31.715,160.367-25.492c22.34-37.02,24.294-39.008,46.663-67.902
		C377.962,1019.749,263.443,1026.995,202.64,1072.986z"/>
	<path d="M1201.22,1349.894l2.459-0.087c0.107,0.871,0.3,1.485,0.587,1.772l-0.003,0.019c3.647,3.623,59.154,3.907,68.712-4.24
		l2.118-0.075l0.958-3.717c4.289-7.332,30.808-91.115,17.276-170.279c-10.392-60.781-8.881-57.982-28.552-52.953
		c-39.073,9.989-55.717,18.155-52.599,25.802C1235.866,1204.214,1218.574,1286.982,1201.22,1349.894z"/>
	<path d="M671.608,963.025c-109.53-23.174-258.14,93.945-267.238,207.334l-2.317,28.91c0,0,30.971,4.16,30.968,4.176
		c20.282,2.709,32.141,2.593,34.36-0.359c12.54-16.687,9.517-66.612,63.51-118.416c52.474-50.348,125.616-63.825,131.62-39.901
		c6.69,26.661-26.802,93.503-26.348,92.495c6.587,13.33,27.838,56.341,34.412,69.646l1.346-1.569l0.818,1.495
		c5.795-8.877,39.395-49.368,53.991-97.024c0.467-0.146,0.625-0.672,0.485-1.622c0.836-2.836,1.983-6.483,3.359-12.02
		C733.727,1095.652,757.117,981.115,671.608,963.025z"/>
	<path d="M326.558,844.476c-12.807,0.483-0.477,0.373-72.098,0.373v90.175h0.005c0,88.051,0.059,72.142-0.2,91.102
		c31.31-7.41,25.149-2.365,70.044-17.702l0.015-0.969l2.234-0.632v-1.212l0.03-0.008c0-169.038-0.066-144.806,0.173-160.754h-0.203
		V844.476z"/>
	<path d="M198.135,1202.817l-0.003-0.001c2.617,2.024,34.306,26.738,35.529,24.089c3.316,2.599,2.544-62.796,3.125-80.924
		l-0.375-0.392l0-1.086c-84.322-86.541-119.552-119.119-114.88-207.279c115.515-2.536,97.918-2.243,114.905-2.243
		c0-26.896,0-48.587,0-72.961c-68.262,1.728-190.289-18.915-188.945,87.167c-1.365,11.513-2.637,81.341,49.787,151.898
		c-0.046,0.345,0.07,0.495,0.332,0.444C120.742,1132.525,164.01,1176.426,198.135,1202.817z"/>
	<path d="M745.627,1439.964c0-7.773,0-63.582,0-72.402c-136.155,0.064-227.279-0.86-224.832,5.608l-0.136,0.022
		c1.117,2.005,4.032,9.745,18.27,34.339v0.001l18.607,32.139C714.856,1439.672,676.281,1439.596,745.627,1439.964z"/>
	<path d="M1081.322,1503.487c7.479-7.943,44.075-46.813,51.549-54.752c-30.404-51.594-31.261-81.367-31.261-160.808l-0.005-0.004
		v-1.022c-1.296-0.838-57.152-37.473-57.99-35.76c-8.251-3.99-8.273-4.024-8.545-3.023c-1.473,0.199-8.134,76.962-1.524,128.876
		c3.191,43.277,11.974,67.125,33.293,102.47h-0.005L1081.322,1503.487z"/>
	<path d="M831.314,844.854c-0.055-11.922-0.038-491.484-0.038-498.919l-0.036-0.001v-0.279l-2.239-0.562l-0.012-2.668
		c-34.82-4.921-49.692,2.135-65.303,1.722v0.605l-2.29,0.286l1.198,249.906l0.003,0.003c1.212,252.831,1.053,210.666,1.053,249.906
		C771.246,844.854,823.928,844.854,831.314,844.854z"/>
	<path d="M299.684,1317.713c15.527,8.291,24.858,12.606,29.947,13.049c1.444,0.607,1.633,0.849,1.87-0.037
		c3.651-0.58,3.906-4.456,2.263-11.587c-1.939-8.425-7.087-99.845-6.806-200.596l-0.383,0.077l-0.015-2.912l-1.304,0.385
		l-0.021-0.694c-19.432,4.42-18.975,3.342-71.398,26.66l0.045,2.256l-0.338,0.195
		C257.492,1304.051,250.095,1291.235,299.684,1317.713z"/>
	<path d="M763.349,950.955c0.435,474.503,0.422,615.938-10.959,623.898c-28.731,0-54.144,2.831-103.584-30.096
		c-12.361-8.23-24.231-14.964-26.378-14.964c-4.947,0-47.887,36.749-56.474,43.924c12.485,11.644,34.832,35.819,96.309,60.615
		l0.006-0.001c23.435,9.433,32.975,11.891,57.775,11.84c15.242,1.087,30.103,0.818,36.869-0.921
		c18.365-2.16,23.362-0.643,39.869-13.245c13.023-9.937,20.768-12.333,25.498-30.568l6.712-10.138
		c0.006-1.006,3.901-565.005,4.502-638.29C833.494,953.008,809.281,952.004,763.349,950.955z"/>
	<path d="M669.823,254.559c2.172,9.487,10.405,66.206,21.242,69.1v0.008c9.651,2.579,148.905,2.879,158.204,2.989
		c0-53.928,4.673-71.045,0-71.389v-0.708C849.268,254.559,669.823,254.559,669.823,254.559z"/>
	<path d="M253.775,741.213c10.604,0,62.461,0,73.03,0c-0.295-79.04-0.244-33.957-0.244-225.503
		c-40.428,20.621-42.688,22.472-72.1,41.936v91.777h0.003C254.463,710.179,254.62,689.251,253.775,741.213z"/>
	<path d="M346.327,1259.489l0.508,15.146c19.379,5.076,38.372,10.588,71.807,15.656c0.878,0.599,2.061,0.88,3.056,0.446
		c48.296,6.808,154.297-2.253,155.173-14.376l0.394-0.142c-2.036-7.691,1.331-9.948-20.411-65.685
		c-57.531,13.709-95.997,19.579-212.607-13.071C344.834,1214.979,343.463,1248.933,346.327,1259.489z"/>
	<path d="M1147.225,983.181c-28.385-14.067-36.066-17.677-58.428-18.601c-18.279-2.183-40.802-3.058-59.357,0.167
		c-34.631,1.947-67.523,35.593-67.523,85.426c0,97.288,83.639,219.233,210.718,240.63v-0.001
		c11.738,1.977,22.772,3.854,24.519,4.124c6.172,1.03,10.105-56.459,11.259-69.504l-0.662-0.165l0.122-0.976
		c-33.156-4.402-69.255-18.628-86.537-30.052c-50.728-33.53-95.802-110.663-84.778-155.513c1.784-1.92,4.721-3.101,9.242-4.825
		c14.729-5.617,25.425-0.819,95.646,22.567c1-0.442,58.212-23.832,58.001-34.018
		C1203.339,1010.602,1158.372,988.704,1147.225,983.181z"/>
	<path d="M1464.34,466.223l-0.036,1.207l-2.209-1.52c0,88.083,0.111,71.325-0.332,86.038
		c29.528,27.609,108.528,94.547,116.856,170.07c-0.02,6.037-1.058,24.11-1.006,23.108c-5.969,15.753-31.671,14.095-115.521,14.095
		c0,0,0,36.463-0.003,36.466v36.463c99.581-2.309,116.994-2.27,130.077-5.319h3.759c13.084-9.479,57.03-25.492,55.111-85.64
		C1657.932,631.808,1556.537,527.616,1464.34,466.223z"/>
	<path d="M254.54,429.64c-0.103,7.93,6.7,3.214,40.474-9.356c3.895-1.45,27.006-9.954,28.921-13.329
		c6.163-4.85,7.898-10.535,9.697-21.058c24.483-143.401,121.17-186.158,141.235-201.769c18.501-13.38,62.363-58.366,57.135-63.594
		c-3.716-3.716-32.664-7.068-53.14-4.33c-78.721,4.783-184.38,91.277-214.383,247.957c-0.483,0.571-9.764,52.717-9.943,65.476
		L254.54,429.64z"/>
	<path d="M202.212,620.273v0.003c2.116,1.375,27.573,17.737,29.9,17.266c0.409,0.077,0.703,0.114,1.156-0.814l0.929,0.534
		c0.095-2.619,9.674-55.001,2.237-70.583v-5.462c-10.054-10.056-37.579-41.791-44.994-56.371
		c-14.951-42.922,39.15-89.942,47.569-112.093c8.031-21.101,24.643-94.471,23.09-96.024c-3.699-3.696-77.181,51.023-93.658,69.742
		c-22.376,25.419-56.414,86-51.207,123.533C119.357,548.123,152.949,588.266,202.212,620.273z"/>
	<path d="M1371.87,1153.515l0.008,0.003c0.049,9.03,1.083,16.71,2.462,19.285c0.225,1.222,0.347,1.042,0.838,0.895
		c2.896,0.874,59.422-30.431,66.648-34.362c0.734-57.552,2.243-50.207,2.243-112.616c0-72.656-0.048-59.292,0.164-75.977
		c-10.515,0-62.089,0-72.635,0l0.002,1.836l-0.339-0.013C1371.954,992.807,1371.494,1057.964,1371.87,1153.515z"/>
	<path d="M1364.477,374.403c9.901,95.108,7.094,201.198,7.094,201.198l0.005-0.003c0.34,2.866-3.158,6.636,31.997-5.835
		c3.428-0.107,4.693-0.357,3.711-1.353c24.833-9.296,22.084-11.082,37.919-18.189c-1.423-49.452-1.13-21.149-1.13-138.856
		l-13.773-12.865c-14.148-13.218-64.189-40.269-65.32-34.48c-1,0.121-1.128,1.423-0.896,5.634
		C1362.245,371.356,1362.867,373.9,1364.477,374.403z"/>
	<path d="M1056.537,232.711c0,0.681,1.815,1.322,4.97,1.876c4.574,2.65,59.885,1.93,70.904,1.93
		c60.007-51.635,69.549-68.608,136.474-21.437c12.843,9.052,22.344,15.072,32.663,19.887c2.725,3.886,6.44,5.429,11.404,4.722
		c9.675,3.549,20.986,6.689,36.484,10.524h-0.003c2.227,0.551,47.756,11.098,48.769,10.521c4.097-2.254-33.746-82.95-125.371-130.54
		c-30.502-15.844-71.067-17.164-80.895-14.053c-32.652,5.358-44.685,8.989-77.808,38.739
		C1093.189,173.687,1056.537,223.221,1056.537,232.711z"/>
</g>
</svg>
