solid OpenSCAD_Model
  facet normal 0.980786 0.195088 0
    outer loop
      vertex 5 0 2
      vertex 4.80109 1 0
      vertex 4.80109 1 2
    endloop
  endfacet
  facet normal 0.980786 0.195088 0
    outer loop
      vertex 4.80109 1 0
      vertex 5 0 2
      vertex 5 0 0
    endloop
  endfacet
  facet normal -0.980786 0.195089 0
    outer loop
      vertex -5 0 0
      vertex -4.6194 1.91342 2
      vertex -4.6194 1.91342 0
    endloop
  endfacet
  facet normal -0.980786 0.195089 0
    outer loop
      vertex -4.6194 1.91342 2
      vertex -5 0 0
      vertex -5 0 2
    endloop
  endfacet
  facet normal 0.195088 0.980786 -0
    outer loop
      vertex 1 4.80109 0
      vertex 0 5 2
      vertex 1 4.80109 2
    endloop
  endfacet
  facet normal 0.195088 0.980786 0
    outer loop
      vertex 0 5 2
      vertex 1 4.80109 0
      vertex 0 5 0
    endloop
  endfacet
  facet normal 0.831462 0.555581 0
    outer loop
      vertex 3.89337 3 2
      vertex 3.53553 3.53553 0
      vertex 3.53553 3.53553 2
    endloop
  endfacet
  facet normal 0.831462 0.555581 0
    outer loop
      vertex 3.53553 3.53553 0
      vertex 3.89337 3 2
      vertex 3.89337 3 0
    endloop
  endfacet
  facet normal -0.195089 -0.980786 0
    outer loop
      vertex -1.91342 -4.6194 0
      vertex 0 -5 2
      vertex -1.91342 -4.6194 2
    endloop
  endfacet
  facet normal -0.195089 -0.980786 -0
    outer loop
      vertex 0 -5 2
      vertex -1.91342 -4.6194 0
      vertex 0 -5 0
    endloop
  endfacet
  facet normal -0 0 -1
    outer loop
      vertex 5 0 0
      vertex 4.6194 -1.91342 0
      vertex 4.80109 1 0
    endloop
  endfacet
  facet normal 0 0 -1
    outer loop
      vertex 45.5 0 0
      vertex 49.5 0 0
      vertex 49.1194 -1.91342 0
    endloop
  endfacet
  facet normal 0 0 -1
    outer loop
      vertex 45.5 0 0
      vertex 49.1194 -1.91342 0
      vertex 48.0355 -3.53553 0
    endloop
  endfacet
  facet normal 0 0 -1
    outer loop
      vertex 49.5 0 0
      vertex 45.5 0 0
      vertex 49.1194 1.91342 0
    endloop
  endfacet
  facet normal 0 0 -1
    outer loop
      vertex 44.809 -0.951056 0
      vertex 48.0355 -3.53553 0
      vertex 46.4134 -4.6194 0
    endloop
  endfacet
  facet normal -0 0 -1
    outer loop
      vertex 49.1194 1.91342 0
      vertex 45.5 0 0
      vertex 48.0355 3.53553 0
    endloop
  endfacet
  facet normal 0 0 -1
    outer loop
      vertex 44.809 0.951056 0
      vertex 48.0355 3.53553 0
      vertex 45.5 0 0
    endloop
  endfacet
  facet normal 0 0 -1
    outer loop
      vertex 48.0355 -3.53553 0
      vertex 44.809 -0.951056 0
      vertex 45.5 0 0
    endloop
  endfacet
  facet normal 0 0 -1
    outer loop
      vertex 44.5 -5 0
      vertex 44.809 -0.951056 0
      vertex 46.4134 -4.6194 0
    endloop
  endfacet
  facet normal 0 0 -1
    outer loop
      vertex 42.5866 -4.6194 0
      vertex 44.809 -0.951056 0
      vertex 44.5 -5 0
    endloop
  endfacet
  facet normal 0 0 -1
    outer loop
      vertex 39.6989 1 0
      vertex 43.691 0.587785 0
      vertex 43.691 -0.587785 0
    endloop
  endfacet
  facet normal 0 0 -1
    outer loop
      vertex 43.691 0.587785 0
      vertex 39.6989 1 0
      vertex 40.6066 3 0
    endloop
  endfacet
  facet normal 0 0 -1
    outer loop
      vertex 39.6989 1 0
      vertex 43.691 -0.587785 0
      vertex 42.5866 -4.6194 0
    endloop
  endfacet
  facet normal -0 0 -1
    outer loop
      vertex 44.809 -0.951056 0
      vertex 42.5866 -4.6194 0
      vertex 43.691 -0.587785 0
    endloop
  endfacet
  facet normal -0 0 -1
    outer loop
      vertex 48.0355 3.53553 0
      vertex 44.809 0.951056 0
      vertex 46.4134 4.6194 0
    endloop
  endfacet
  facet normal 0 0 -1
    outer loop
      vertex 44.809 0.951056 0
      vertex 44.5 5 0
      vertex 46.4134 4.6194 0
    endloop
  endfacet
  facet normal 0 0 -1
    outer loop
      vertex 43.5 4.80109 0
      vertex 44.809 0.951056 0
      vertex 43.691 0.587785 0
    endloop
  endfacet
  facet normal 0 0 -1
    outer loop
      vertex 44.809 0.951056 0
      vertex 43.5 4.80109 0
      vertex 44.5 5 0
    endloop
  endfacet
  facet normal 0 0 -1
    outer loop
      vertex 39.8806 -1.91342 0
      vertex 39.5 0 0
      vertex 39.6989 1 0
    endloop
  endfacet
  facet normal 0 0 -1
    outer loop
      vertex 39.6989 72.2 0
      vertex 43.691 72.6122 0
      vertex 40.6066 70.2 0
    endloop
  endfacet
  facet normal 0 0 -1
    outer loop
      vertex 40.6066 70.2 0
      vertex 41.5 69.3066 0
      vertex 40.9645 69.6645 0
    endloop
  endfacet
  facet normal 0 0 -1
    outer loop
      vertex 39.5 73.2 0
      vertex 43.691 72.6122 0
      vertex 39.6989 72.2 0
    endloop
  endfacet
  facet normal 0 0 -1
    outer loop
      vertex 43.691 72.6122 0
      vertex 39.5 73.2 0
      vertex 43.691 73.7878 0
    endloop
  endfacet
  facet normal 0 0 -1
    outer loop
      vertex 43.691 73.7878 0
      vertex 40.9645 76.7355 0
      vertex 42.5866 77.8194 0
    endloop
  endfacet
  facet normal 0 0 -1
    outer loop
      vertex 43.691 73.7878 0
      vertex 39.8806 75.1134 0
      vertex 40.9645 76.7355 0
    endloop
  endfacet
  facet normal 0 0 -1
    outer loop
      vertex 40.6066 70.2 0
      vertex 4.80109 72.2 0
      vertex 39.6989 72.2 0
    endloop
  endfacet
  facet normal 0 0 -1
    outer loop
      vertex 3.89337 70.2 0
      vertex 4.80109 72.2 0
      vertex 40.6066 70.2 0
    endloop
  endfacet
  facet normal 0 0 -1
    outer loop
      vertex 1 73.2 0
      vertex 4.80109 72.2 0
      vertex 3.89337 70.2 0
    endloop
  endfacet
  facet normal 0 0 -1
    outer loop
      vertex 3 69.3066 0
      vertex 3.89337 70.2 0
      vertex 3.53553 69.6645 0
    endloop
  endfacet
  facet normal 0 0 -1
    outer loop
      vertex 4.80109 72.2 0
      vertex 1 73.2 0
      vertex 4.6194 75.1134 0
    endloop
  endfacet
  facet normal -0 0 -1
    outer loop
      vertex 3.89337 70.2 0
      vertex 3 69.3066 0
      vertex 0.309016 72.2489 0
    endloop
  endfacet
  facet normal -0 0 -1
    outer loop
      vertex 4.6194 75.1134 0
      vertex 1 73.2 0
      vertex 3.53553 76.7355 0
    endloop
  endfacet
  facet normal 0 0 -1
    outer loop
      vertex 3 3.89337 0
      vertex 1 4.80109 0
      vertex 3 69.3066 0
    endloop
  endfacet
  facet normal 0 0 -1
    outer loop
      vertex 1 4.80109 0
      vertex 1.91342 -4.6194 0
      vertex 1 0 0
    endloop
  endfacet
  facet normal 0 0 -1
    outer loop
      vertex 1.91342 -4.6194 0
      vertex 0.309016 -0.951056 0
      vertex 1 0 0
    endloop
  endfacet
  facet normal 0 0 -1
    outer loop
      vertex 0 -5 0
      vertex 0.309016 -0.951056 0
      vertex 1.91342 -4.6194 0
    endloop
  endfacet
  facet normal 0 0 -1
    outer loop
      vertex -1.91342 -4.6194 0
      vertex 0.309016 -0.951056 0
      vertex 0 -5 0
    endloop
  endfacet
  facet normal 0 0 -1
    outer loop
      vertex -3.53553 -3.53553 0
      vertex -0.809016 -0.587785 0
      vertex -1.91342 -4.6194 0
    endloop
  endfacet
  facet normal -0 0 -1
    outer loop
      vertex 0.309016 -0.951056 0
      vertex -1.91342 -4.6194 0
      vertex -0.809016 -0.587785 0
    endloop
  endfacet
  facet normal -0 0 -1
    outer loop
      vertex 43.691 73.7878 0
      vertex 39.5 73.2 0
      vertex 39.8806 75.1134 0
    endloop
  endfacet
  facet normal 0 0 -1
    outer loop
      vertex 3.89337 70.2 0
      vertex 0.309016 72.2489 0
      vertex 1 73.2 0
    endloop
  endfacet
  facet normal 0 0 -1
    outer loop
      vertex 0 68.2 0
      vertex 0.309016 72.2489 0
      vertex 1 68.3989 0
    endloop
  endfacet
  facet normal 0 0 -1
    outer loop
      vertex -1.91342 68.5806 0
      vertex 0.309016 72.2489 0
      vertex 0 68.2 0
    endloop
  endfacet
  facet normal 0 0 -1
    outer loop
      vertex -3.53553 69.6645 0
      vertex -0.809016 72.6122 0
      vertex -1.91342 68.5806 0
    endloop
  endfacet
  facet normal -0 0 -1
    outer loop
      vertex 0.309016 72.2489 0
      vertex -1.91342 68.5806 0
      vertex -0.809016 72.6122 0
    endloop
  endfacet
  facet normal 0 0 -1
    outer loop
      vertex 0.309016 0.951056 0
      vertex 1 4.80109 0
      vertex 1 0 0
    endloop
  endfacet
  facet normal 0 0 -1
    outer loop
      vertex 0.309016 0.951056 0
      vertex 0 5 0
      vertex 1 4.80109 0
    endloop
  endfacet
  facet normal 0 0 -1
    outer loop
      vertex -1.91342 4.6194 0
      vertex 0.309016 0.951056 0
      vertex -0.809016 0.587785 0
    endloop
  endfacet
  facet normal 0 0 -1
    outer loop
      vertex -4.6194 -1.91342 0
      vertex -0.809016 -0.587785 0
      vertex -3.53553 -3.53553 0
    endloop
  endfacet
  facet normal 0 0 -1
    outer loop
      vertex 0.309016 0.951056 0
      vertex -1.91342 4.6194 0
      vertex 0 5 0
    endloop
  endfacet
  facet normal 0 0 -1
    outer loop
      vertex -5 0 0
      vertex -0.809016 -0.587785 0
      vertex -4.6194 -1.91342 0
    endloop
  endfacet
  facet normal 0 0 -1
    outer loop
      vertex -0.809016 0.587785 0
      vertex -3.53553 3.53553 0
      vertex -1.91342 4.6194 0
    endloop
  endfacet
  facet normal 0 0 -1
    outer loop
      vertex -0.809016 -0.587785 0
      vertex -5 0 0
      vertex -0.809016 0.587785 0
    endloop
  endfacet
  facet normal 0 0 -1
    outer loop
      vertex -0.809016 0.587785 0
      vertex -4.6194 1.91342 0
      vertex -3.53553 3.53553 0
    endloop
  endfacet
  facet normal -0 0 -1
    outer loop
      vertex -0.809016 0.587785 0
      vertex -5 0 0
      vertex -4.6194 1.91342 0
    endloop
  endfacet
  facet normal 0 0 -1
    outer loop
      vertex 1 68.3989 0
      vertex 3 69.3066 0
      vertex 1 4.80109 0
    endloop
  endfacet
  facet normal 0 0 -1
    outer loop
      vertex 0.309016 72.2489 0
      vertex 3 69.3066 0
      vertex 1 68.3989 0
    endloop
  endfacet
  facet normal 0 0 -1
    outer loop
      vertex 0.309016 74.1511 0
      vertex 3.53553 76.7355 0
      vertex 1 73.2 0
    endloop
  endfacet
  facet normal -0 0 -1
    outer loop
      vertex 3.53553 76.7355 0
      vertex 0.309016 74.1511 0
      vertex 1.91342 77.8194 0
    endloop
  endfacet
  facet normal 0 0 -1
    outer loop
      vertex 0.309016 74.1511 0
      vertex 0 78.2 0
      vertex 1.91342 77.8194 0
    endloop
  endfacet
  facet normal 0 0 -1
    outer loop
      vertex -1.91342 77.8194 0
      vertex 0.309016 74.1511 0
      vertex -0.809016 73.7878 0
    endloop
  endfacet
  facet normal 0 0 -1
    outer loop
      vertex -4.6194 71.2866 0
      vertex -0.809016 72.6122 0
      vertex -3.53553 69.6645 0
    endloop
  endfacet
  facet normal 0 0 -1
    outer loop
      vertex 0.309016 74.1511 0
      vertex -1.91342 77.8194 0
      vertex 0 78.2 0
    endloop
  endfacet
  facet normal 0 0 -1
    outer loop
      vertex -5 73.2 0
      vertex -0.809016 72.6122 0
      vertex -4.6194 71.2866 0
    endloop
  endfacet
  facet normal 0 0 -1
    outer loop
      vertex -0.809016 73.7878 0
      vertex -3.53553 76.7355 0
      vertex -1.91342 77.8194 0
    endloop
  endfacet
  facet normal 0 0 -1
    outer loop
      vertex -0.809016 72.6122 0
      vertex -5 73.2 0
      vertex -0.809016 73.7878 0
    endloop
  endfacet
  facet normal 0 0 -1
    outer loop
      vertex -0.809016 73.7878 0
      vertex -4.6194 75.1134 0
      vertex -3.53553 76.7355 0
    endloop
  endfacet
  facet normal -0 0 -1
    outer loop
      vertex -0.809016 73.7878 0
      vertex -5 73.2 0
      vertex -4.6194 75.1134 0
    endloop
  endfacet
  facet normal -0 0 -1
    outer loop
      vertex 5 73.2 0
      vertex 4.80109 72.2 0
      vertex 4.6194 75.1134 0
    endloop
  endfacet
  facet normal 0 0 -1
    outer loop
      vertex 45.5 73.2 0
      vertex 49.5 73.2 0
      vertex 49.1194 71.2866 0
    endloop
  endfacet
  facet normal 0 0 -1
    outer loop
      vertex 45.5 73.2 0
      vertex 49.1194 71.2866 0
      vertex 48.0355 69.6645 0
    endloop
  endfacet
  facet normal 0 0 -1
    outer loop
      vertex 49.5 73.2 0
      vertex 45.5 73.2 0
      vertex 49.1194 75.1134 0
    endloop
  endfacet
  facet normal 0 0 -1
    outer loop
      vertex 44.809 72.2489 0
      vertex 48.0355 69.6645 0
      vertex 46.4134 68.5806 0
    endloop
  endfacet
  facet normal -0 0 -1
    outer loop
      vertex 49.1194 75.1134 0
      vertex 45.5 73.2 0
      vertex 48.0355 76.7355 0
    endloop
  endfacet
  facet normal 0 0 -1
    outer loop
      vertex 44.809 74.1511 0
      vertex 48.0355 76.7355 0
      vertex 45.5 73.2 0
    endloop
  endfacet
  facet normal 0 0 -1
    outer loop
      vertex 48.0355 69.6645 0
      vertex 44.809 72.2489 0
      vertex 45.5 73.2 0
    endloop
  endfacet
  facet normal 0 0 -1
    outer loop
      vertex 44.5 68.2 0
      vertex 44.809 72.2489 0
      vertex 46.4134 68.5806 0
    endloop
  endfacet
  facet normal 0 0 -1
    outer loop
      vertex 43.5 68.3989 0
      vertex 44.809 72.2489 0
      vertex 44.5 68.2 0
    endloop
  endfacet
  facet normal 0 0 -1
    outer loop
      vertex 41.5 69.3066 0
      vertex 43.691 72.6122 0
      vertex 43.5 68.3989 0
    endloop
  endfacet
  facet normal -0 0 -1
    outer loop
      vertex 44.809 72.2489 0
      vertex 43.5 68.3989 0
      vertex 43.691 72.6122 0
    endloop
  endfacet
  facet normal -0 0 -1
    outer loop
      vertex 48.0355 76.7355 0
      vertex 44.809 74.1511 0
      vertex 46.4134 77.8194 0
    endloop
  endfacet
  facet normal 0 0 -1
    outer loop
      vertex 44.809 74.1511 0
      vertex 44.5 78.2 0
      vertex 46.4134 77.8194 0
    endloop
  endfacet
  facet normal 0 0 -1
    outer loop
      vertex 42.5866 77.8194 0
      vertex 44.809 74.1511 0
      vertex 43.691 73.7878 0
    endloop
  endfacet
  facet normal 0 0 -1
    outer loop
      vertex 44.809 74.1511 0
      vertex 42.5866 77.8194 0
      vertex 44.5 78.2 0
    endloop
  endfacet
  facet normal 0 0 -1
    outer loop
      vertex 40.6066 70.2 0
      vertex 43.691 72.6122 0
      vertex 41.5 69.3066 0
    endloop
  endfacet
  facet normal -0 0 -1
    outer loop
      vertex 43.5 4.80109 0
      vertex 41.5 3.89337 0
      vertex 43.5 68.3989 0
    endloop
  endfacet
  facet normal 0 0 -1
    outer loop
      vertex 41.5 69.3066 0
      vertex 43.5 68.3989 0
      vertex 41.5 3.89337 0
    endloop
  endfacet
  facet normal 0 0 -1
    outer loop
      vertex 39.6989 1 0
      vertex 42.5866 -4.6194 0
      vertex 40.9645 -3.53553 0
    endloop
  endfacet
  facet normal 0 0 -1
    outer loop
      vertex 43.691 0.587785 0
      vertex 41.5 3.89337 0
      vertex 43.5 4.80109 0
    endloop
  endfacet
  facet normal 0 0 -1
    outer loop
      vertex 41.5 3.89337 0
      vertex 40.6066 3 0
      vertex 40.9645 3.53553 0
    endloop
  endfacet
  facet normal 0 0 -1
    outer loop
      vertex 39.6989 1 0
      vertex 40.9645 -3.53553 0
      vertex 39.8806 -1.91342 0
    endloop
  endfacet
  facet normal 0 0 -1
    outer loop
      vertex 43.691 0.587785 0
      vertex 40.6066 3 0
      vertex 41.5 3.89337 0
    endloop
  endfacet
  facet normal 0 0 -1
    outer loop
      vertex 4.80109 1 0
      vertex 40.6066 3 0
      vertex 39.6989 1 0
    endloop
  endfacet
  facet normal 0 0 -1
    outer loop
      vertex 4.80109 1 0
      vertex 3.89337 3 0
      vertex 40.6066 3 0
    endloop
  endfacet
  facet normal 0 0 -1
    outer loop
      vertex 3.53553 -3.53553 0
      vertex 4.80109 1 0
      vertex 4.6194 -1.91342 0
    endloop
  endfacet
  facet normal 0 0 -1
    outer loop
      vertex 1.91342 -4.6194 0
      vertex 4.80109 1 0
      vertex 3.53553 -3.53553 0
    endloop
  endfacet
  facet normal 0 0 -1
    outer loop
      vertex 1 4.80109 0
      vertex 4.80109 1 0
      vertex 1.91342 -4.6194 0
    endloop
  endfacet
  facet normal 0 0 -1
    outer loop
      vertex 3.89337 3 0
      vertex 3 3.89337 0
      vertex 3.53553 3.53553 0
    endloop
  endfacet
  facet normal 0 0 -1
    outer loop
      vertex 4.80109 1 0
      vertex 1 4.80109 0
      vertex 3 3.89337 0
    endloop
  endfacet
  facet normal 0 0 -1
    outer loop
      vertex 4.80109 1 0
      vertex 3 3.89337 0
      vertex 3.89337 3 0
    endloop
  endfacet
  facet normal 0.555581 0.831462 -0
    outer loop
      vertex 3.53553 3.53553 0
      vertex 3 3.89337 2
      vertex 3.53553 3.53553 2
    endloop
  endfacet
  facet normal 0.555581 0.831462 0
    outer loop
      vertex 3 3.89337 2
      vertex 3.53553 3.53553 0
      vertex 3 3.89337 0
    endloop
  endfacet
  facet normal -0.555574 0.831467 0
    outer loop
      vertex -1.91342 4.6194 0
      vertex -3.53553 3.53553 2
      vertex -1.91342 4.6194 2
    endloop
  endfacet
  facet normal -0.555574 0.831467 0
    outer loop
      vertex -3.53553 3.53553 2
      vertex -1.91342 4.6194 0
      vertex -3.53553 3.53553 0
    endloop
  endfacet
  facet normal -0.831467 0.555574 0
    outer loop
      vertex -4.6194 1.91342 0
      vertex -3.53553 3.53553 2
      vertex -3.53553 3.53553 0
    endloop
  endfacet
  facet normal -0.831467 0.555574 0
    outer loop
      vertex -3.53553 3.53553 2
      vertex -4.6194 1.91342 0
      vertex -4.6194 1.91342 2
    endloop
  endfacet
  facet normal 0 0 1
    outer loop
      vertex 5 73.2 2
      vertex 4.6194 75.1134 2
      vertex 4.80109 72.2 2
    endloop
  endfacet
  facet normal 0 0 1
    outer loop
      vertex 45.5 73.2 2
      vertex 49.5 73.2 2
      vertex 49.1194 75.1134 2
    endloop
  endfacet
  facet normal 0 0 1
    outer loop
      vertex 45.5 73.2 2
      vertex 49.1194 75.1134 2
      vertex 48.0355 76.7355 2
    endloop
  endfacet
  facet normal 0 0 1
    outer loop
      vertex 49.5 73.2 2
      vertex 45.5 73.2 2
      vertex 49.1194 71.2866 2
    endloop
  endfacet
  facet normal 0 0 1
    outer loop
      vertex 44.809 74.1511 2
      vertex 48.0355 76.7355 2
      vertex 46.4134 77.8194 2
    endloop
  endfacet
  facet normal 0 0 1
    outer loop
      vertex 49.1194 71.2866 2
      vertex 45.5 73.2 2
      vertex 48.0355 69.6645 2
    endloop
  endfacet
  facet normal -0 0 1
    outer loop
      vertex 44.809 72.2489 2
      vertex 48.0355 69.6645 2
      vertex 45.5 73.2 2
    endloop
  endfacet
  facet normal 0 0 1
    outer loop
      vertex 48.0355 76.7355 2
      vertex 44.809 74.1511 2
      vertex 45.5 73.2 2
    endloop
  endfacet
  facet normal 0 0 1
    outer loop
      vertex 44.5 78.2 2
      vertex 44.809 74.1511 2
      vertex 46.4134 77.8194 2
    endloop
  endfacet
  facet normal -0 0 1
    outer loop
      vertex 42.5866 77.8194 2
      vertex 44.809 74.1511 2
      vertex 44.5 78.2 2
    endloop
  endfacet
  facet normal 0 0 1
    outer loop
      vertex 39.6989 72.2 2
      vertex 43.691 72.6122 2
      vertex 43.691 73.7878 2
    endloop
  endfacet
  facet normal 0 0 1
    outer loop
      vertex 43.691 72.6122 2
      vertex 39.6989 72.2 2
      vertex 40.6066 70.2 2
    endloop
  endfacet
  facet normal 0 0 1
    outer loop
      vertex 39.6989 72.2 2
      vertex 43.691 73.7878 2
      vertex 42.5866 77.8194 2
    endloop
  endfacet
  facet normal 0 0 1
    outer loop
      vertex 44.809 74.1511 2
      vertex 42.5866 77.8194 2
      vertex 43.691 73.7878 2
    endloop
  endfacet
  facet normal 0 0 1
    outer loop
      vertex 48.0355 69.6645 2
      vertex 44.809 72.2489 2
      vertex 46.4134 68.5806 2
    endloop
  endfacet
  facet normal 0 0 1
    outer loop
      vertex 44.809 72.2489 2
      vertex 44.5 68.2 2
      vertex 46.4134 68.5806 2
    endloop
  endfacet
  facet normal 0 0 1
    outer loop
      vertex 43.5 68.3989 2
      vertex 44.809 72.2489 2
      vertex 43.691 72.6122 2
    endloop
  endfacet
  facet normal 0 0 1
    outer loop
      vertex 44.809 72.2489 2
      vertex 43.5 68.3989 2
      vertex 44.5 68.2 2
    endloop
  endfacet
  facet normal 0 0 1
    outer loop
      vertex 39.8806 75.1134 2
      vertex 39.5 73.2 2
      vertex 39.6989 72.2 2
    endloop
  endfacet
  facet normal -0 0 1
    outer loop
      vertex 39.6989 1 2
      vertex 43.691 0.587785 2
      vertex 40.6066 3 2
    endloop
  endfacet
  facet normal 0 0 1
    outer loop
      vertex 40.6066 3 2
      vertex 41.5 3.89337 2
      vertex 40.9645 3.53553 2
    endloop
  endfacet
  facet normal 0 0 1
    outer loop
      vertex 39.5 0 2
      vertex 43.691 0.587785 2
      vertex 39.6989 1 2
    endloop
  endfacet
  facet normal 0 0 1
    outer loop
      vertex 43.691 0.587785 2
      vertex 39.5 0 2
      vertex 43.691 -0.587785 2
    endloop
  endfacet
  facet normal 0 0 1
    outer loop
      vertex 43.691 -0.587785 2
      vertex 40.9645 -3.53553 2
      vertex 42.5866 -4.6194 2
    endloop
  endfacet
  facet normal 0 0 1
    outer loop
      vertex 43.691 -0.587785 2
      vertex 39.8806 -1.91342 2
      vertex 40.9645 -3.53553 2
    endloop
  endfacet
  facet normal 0 0 1
    outer loop
      vertex 40.6066 3 2
      vertex 4.80109 1 2
      vertex 39.6989 1 2
    endloop
  endfacet
  facet normal -0 0 1
    outer loop
      vertex 3.89337 3 2
      vertex 4.80109 1 2
      vertex 40.6066 3 2
    endloop
  endfacet
  facet normal 0 0 1
    outer loop
      vertex 1 0 2
      vertex 4.80109 1 2
      vertex 3.89337 3 2
    endloop
  endfacet
  facet normal 0 0 1
    outer loop
      vertex 3 3.89337 2
      vertex 3.89337 3 2
      vertex 3.53553 3.53553 2
    endloop
  endfacet
  facet normal 0 0 1
    outer loop
      vertex 4.80109 1 2
      vertex 1 0 2
      vertex 4.6194 -1.91342 2
    endloop
  endfacet
  facet normal 0 0 1
    outer loop
      vertex 3.89337 3 2
      vertex 3 3.89337 2
      vertex 0.309016 0.951056 2
    endloop
  endfacet
  facet normal 0 0 1
    outer loop
      vertex 4.6194 -1.91342 2
      vertex 1 0 2
      vertex 3.53553 -3.53553 2
    endloop
  endfacet
  facet normal 0 0 1
    outer loop
      vertex 3 69.3066 2
      vertex 1 68.3989 2
      vertex 3 3.89337 2
    endloop
  endfacet
  facet normal 0 0 1
    outer loop
      vertex 1 68.3989 2
      vertex 1.91342 77.8194 2
      vertex 1 73.2 2
    endloop
  endfacet
  facet normal 0 0 1
    outer loop
      vertex 1.91342 77.8194 2
      vertex 0.309016 74.1511 2
      vertex 1 73.2 2
    endloop
  endfacet
  facet normal 0 0 1
    outer loop
      vertex 0 78.2 2
      vertex 0.309016 74.1511 2
      vertex 1.91342 77.8194 2
    endloop
  endfacet
  facet normal -0 0 1
    outer loop
      vertex -1.91342 77.8194 2
      vertex 0.309016 74.1511 2
      vertex 0 78.2 2
    endloop
  endfacet
  facet normal -0 0 1
    outer loop
      vertex -3.53553 76.7355 2
      vertex -0.809016 73.7878 2
      vertex -1.91342 77.8194 2
    endloop
  endfacet
  facet normal 0 0 1
    outer loop
      vertex 0.309016 74.1511 2
      vertex -1.91342 77.8194 2
      vertex -0.809016 73.7878 2
    endloop
  endfacet
  facet normal 0 0 1
    outer loop
      vertex 43.691 -0.587785 2
      vertex 39.5 0 2
      vertex 39.8806 -1.91342 2
    endloop
  endfacet
  facet normal 0 0 1
    outer loop
      vertex 3.89337 3 2
      vertex 0.309016 0.951056 2
      vertex 1 0 2
    endloop
  endfacet
  facet normal 0 0 1
    outer loop
      vertex 0 5 2
      vertex 0.309016 0.951056 2
      vertex 1 4.80109 2
    endloop
  endfacet
  facet normal -0 0 1
    outer loop
      vertex -1.91342 4.6194 2
      vertex 0.309016 0.951056 2
      vertex 0 5 2
    endloop
  endfacet
  facet normal -0 0 1
    outer loop
      vertex -3.53553 3.53553 2
      vertex -0.809016 0.587785 2
      vertex -1.91342 4.6194 2
    endloop
  endfacet
  facet normal 0 0 1
    outer loop
      vertex 0.309016 0.951056 2
      vertex -1.91342 4.6194 2
      vertex -0.809016 0.587785 2
    endloop
  endfacet
  facet normal -0 0 1
    outer loop
      vertex 0.309016 72.2489 2
      vertex 1 68.3989 2
      vertex 1 73.2 2
    endloop
  endfacet
  facet normal 0 0 1
    outer loop
      vertex 0.309016 72.2489 2
      vertex 0 68.2 2
      vertex 1 68.3989 2
    endloop
  endfacet
  facet normal 0 0 1
    outer loop
      vertex -1.91342 68.5806 2
      vertex 0.309016 72.2489 2
      vertex -0.809016 72.6122 2
    endloop
  endfacet
  facet normal -0 0 1
    outer loop
      vertex -4.6194 75.1134 2
      vertex -0.809016 73.7878 2
      vertex -3.53553 76.7355 2
    endloop
  endfacet
  facet normal 0 0 1
    outer loop
      vertex 0.309016 72.2489 2
      vertex -1.91342 68.5806 2
      vertex 0 68.2 2
    endloop
  endfacet
  facet normal 0 0 1
    outer loop
      vertex -5 73.2 2
      vertex -0.809016 73.7878 2
      vertex -4.6194 75.1134 2
    endloop
  endfacet
  facet normal 0 0 1
    outer loop
      vertex -0.809016 72.6122 2
      vertex -3.53553 69.6645 2
      vertex -1.91342 68.5806 2
    endloop
  endfacet
  facet normal 0 0 1
    outer loop
      vertex -0.809016 73.7878 2
      vertex -5 73.2 2
      vertex -0.809016 72.6122 2
    endloop
  endfacet
  facet normal 0 0 1
    outer loop
      vertex -0.809016 72.6122 2
      vertex -4.6194 71.2866 2
      vertex -3.53553 69.6645 2
    endloop
  endfacet
  facet normal 0 0 1
    outer loop
      vertex -0.809016 72.6122 2
      vertex -5 73.2 2
      vertex -4.6194 71.2866 2
    endloop
  endfacet
  facet normal -0 0 1
    outer loop
      vertex 1 4.80109 2
      vertex 3 3.89337 2
      vertex 1 68.3989 2
    endloop
  endfacet
  facet normal 0 0 1
    outer loop
      vertex 0.309016 0.951056 2
      vertex 3 3.89337 2
      vertex 1 4.80109 2
    endloop
  endfacet
  facet normal -0 0 1
    outer loop
      vertex 0.309016 -0.951056 2
      vertex 3.53553 -3.53553 2
      vertex 1 0 2
    endloop
  endfacet
  facet normal 0 0 1
    outer loop
      vertex 3.53553 -3.53553 2
      vertex 0.309016 -0.951056 2
      vertex 1.91342 -4.6194 2
    endloop
  endfacet
  facet normal 0 0 1
    outer loop
      vertex 0.309016 -0.951056 2
      vertex 0 -5 2
      vertex 1.91342 -4.6194 2
    endloop
  endfacet
  facet normal 0 0 1
    outer loop
      vertex -1.91342 -4.6194 2
      vertex 0.309016 -0.951056 2
      vertex -0.809016 -0.587785 2
    endloop
  endfacet
  facet normal -0 0 1
    outer loop
      vertex -4.6194 1.91342 2
      vertex -0.809016 0.587785 2
      vertex -3.53553 3.53553 2
    endloop
  endfacet
  facet normal 0 0 1
    outer loop
      vertex 0.309016 -0.951056 2
      vertex -1.91342 -4.6194 2
      vertex 0 -5 2
    endloop
  endfacet
  facet normal 0 0 1
    outer loop
      vertex -5 0 2
      vertex -0.809016 0.587785 2
      vertex -4.6194 1.91342 2
    endloop
  endfacet
  facet normal 0 0 1
    outer loop
      vertex -0.809016 -0.587785 2
      vertex -3.53553 -3.53553 2
      vertex -1.91342 -4.6194 2
    endloop
  endfacet
  facet normal 0 0 1
    outer loop
      vertex -0.809016 0.587785 2
      vertex -5 0 2
      vertex -0.809016 -0.587785 2
    endloop
  endfacet
  facet normal 0 0 1
    outer loop
      vertex -0.809016 -0.587785 2
      vertex -4.6194 -1.91342 2
      vertex -3.53553 -3.53553 2
    endloop
  endfacet
  facet normal 0 0 1
    outer loop
      vertex -0.809016 -0.587785 2
      vertex -5 0 2
      vertex -4.6194 -1.91342 2
    endloop
  endfacet
  facet normal 0 0 1
    outer loop
      vertex 5 0 2
      vertex 4.80109 1 2
      vertex 4.6194 -1.91342 2
    endloop
  endfacet
  facet normal 0 0 1
    outer loop
      vertex 45.5 0 2
      vertex 49.5 0 2
      vertex 49.1194 1.91342 2
    endloop
  endfacet
  facet normal 0 0 1
    outer loop
      vertex 45.5 0 2
      vertex 49.1194 1.91342 2
      vertex 48.0355 3.53553 2
    endloop
  endfacet
  facet normal 0 0 1
    outer loop
      vertex 49.5 0 2
      vertex 45.5 0 2
      vertex 49.1194 -1.91342 2
    endloop
  endfacet
  facet normal 0 0 1
    outer loop
      vertex 44.809 0.951056 2
      vertex 48.0355 3.53553 2
      vertex 46.4134 4.6194 2
    endloop
  endfacet
  facet normal 0 0 1
    outer loop
      vertex 49.1194 -1.91342 2
      vertex 45.5 0 2
      vertex 48.0355 -3.53553 2
    endloop
  endfacet
  facet normal -0 0 1
    outer loop
      vertex 44.809 -0.951056 2
      vertex 48.0355 -3.53553 2
      vertex 45.5 0 2
    endloop
  endfacet
  facet normal 0 0 1
    outer loop
      vertex 48.0355 3.53553 2
      vertex 44.809 0.951056 2
      vertex 45.5 0 2
    endloop
  endfacet
  facet normal 0 0 1
    outer loop
      vertex 44.5 5 2
      vertex 44.809 0.951056 2
      vertex 46.4134 4.6194 2
    endloop
  endfacet
  facet normal -0 0 1
    outer loop
      vertex 43.5 4.80109 2
      vertex 44.809 0.951056 2
      vertex 44.5 5 2
    endloop
  endfacet
  facet normal -0 0 1
    outer loop
      vertex 41.5 3.89337 2
      vertex 43.691 0.587785 2
      vertex 43.5 4.80109 2
    endloop
  endfacet
  facet normal 0 0 1
    outer loop
      vertex 44.809 0.951056 2
      vertex 43.5 4.80109 2
      vertex 43.691 0.587785 2
    endloop
  endfacet
  facet normal 0 0 1
    outer loop
      vertex 48.0355 -3.53553 2
      vertex 44.809 -0.951056 2
      vertex 46.4134 -4.6194 2
    endloop
  endfacet
  facet normal 0 0 1
    outer loop
      vertex 44.809 -0.951056 2
      vertex 44.5 -5 2
      vertex 46.4134 -4.6194 2
    endloop
  endfacet
  facet normal 0 0 1
    outer loop
      vertex 42.5866 -4.6194 2
      vertex 44.809 -0.951056 2
      vertex 43.691 -0.587785 2
    endloop
  endfacet
  facet normal 0 0 1
    outer loop
      vertex 44.809 -0.951056 2
      vertex 42.5866 -4.6194 2
      vertex 44.5 -5 2
    endloop
  endfacet
  facet normal -0 0 1
    outer loop
      vertex 40.6066 3 2
      vertex 43.691 0.587785 2
      vertex 41.5 3.89337 2
    endloop
  endfacet
  facet normal 0 0 1
    outer loop
      vertex 43.5 68.3989 2
      vertex 41.5 69.3066 2
      vertex 43.5 4.80109 2
    endloop
  endfacet
  facet normal 0 0 1
    outer loop
      vertex 41.5 3.89337 2
      vertex 43.5 4.80109 2
      vertex 41.5 69.3066 2
    endloop
  endfacet
  facet normal 0 0 1
    outer loop
      vertex 39.6989 72.2 2
      vertex 42.5866 77.8194 2
      vertex 40.9645 76.7355 2
    endloop
  endfacet
  facet normal 0 0 1
    outer loop
      vertex 43.691 72.6122 2
      vertex 41.5 69.3066 2
      vertex 43.5 68.3989 2
    endloop
  endfacet
  facet normal 0 0 1
    outer loop
      vertex 41.5 69.3066 2
      vertex 40.6066 70.2 2
      vertex 40.9645 69.6645 2
    endloop
  endfacet
  facet normal 0 0 1
    outer loop
      vertex 39.6989 72.2 2
      vertex 40.9645 76.7355 2
      vertex 39.8806 75.1134 2
    endloop
  endfacet
  facet normal 0 0 1
    outer loop
      vertex 43.691 72.6122 2
      vertex 40.6066 70.2 2
      vertex 41.5 69.3066 2
    endloop
  endfacet
  facet normal -0 0 1
    outer loop
      vertex 4.80109 72.2 2
      vertex 40.6066 70.2 2
      vertex 39.6989 72.2 2
    endloop
  endfacet
  facet normal 0 0 1
    outer loop
      vertex 4.80109 72.2 2
      vertex 3.89337 70.2 2
      vertex 40.6066 70.2 2
    endloop
  endfacet
  facet normal 0 0 1
    outer loop
      vertex 3.53553 76.7355 2
      vertex 4.80109 72.2 2
      vertex 4.6194 75.1134 2
    endloop
  endfacet
  facet normal 0 0 1
    outer loop
      vertex 1.91342 77.8194 2
      vertex 4.80109 72.2 2
      vertex 3.53553 76.7355 2
    endloop
  endfacet
  facet normal 0 0 1
    outer loop
      vertex 1 68.3989 2
      vertex 4.80109 72.2 2
      vertex 1.91342 77.8194 2
    endloop
  endfacet
  facet normal 0 0 1
    outer loop
      vertex 3.89337 70.2 2
      vertex 3 69.3066 2
      vertex 3.53553 69.6645 2
    endloop
  endfacet
  facet normal 0 0 1
    outer loop
      vertex 4.80109 72.2 2
      vertex 1 68.3989 2
      vertex 3 69.3066 2
    endloop
  endfacet
  facet normal 0 0 1
    outer loop
      vertex 4.80109 72.2 2
      vertex 3 69.3066 2
      vertex 3.89337 70.2 2
    endloop
  endfacet
  facet normal -0.195089 0.980786 0
    outer loop
      vertex 0 5 0
      vertex -1.91342 4.6194 2
      vertex 0 5 2
    endloop
  endfacet
  facet normal -0.195089 0.980786 0
    outer loop
      vertex -1.91342 4.6194 2
      vertex 0 5 0
      vertex -1.91342 4.6194 0
    endloop
  endfacet
  facet normal -0.555574 -0.831467 0
    outer loop
      vertex -3.53553 -3.53553 0
      vertex -1.91342 -4.6194 2
      vertex -3.53553 -3.53553 2
    endloop
  endfacet
  facet normal -0.555574 -0.831467 -0
    outer loop
      vertex -1.91342 -4.6194 2
      vertex -3.53553 -3.53553 0
      vertex -1.91342 -4.6194 0
    endloop
  endfacet
  facet normal -0.980786 -0.195089 0
    outer loop
      vertex -4.6194 -1.91342 0
      vertex -5 0 2
      vertex -5 0 0
    endloop
  endfacet
  facet normal -0.980786 -0.195089 0
    outer loop
      vertex -5 0 2
      vertex -4.6194 -1.91342 0
      vertex -4.6194 -1.91342 2
    endloop
  endfacet
  facet normal 0.555574 -0.831467 0
    outer loop
      vertex 1.91342 -4.6194 0
      vertex 3.53553 -3.53553 2
      vertex 1.91342 -4.6194 2
    endloop
  endfacet
  facet normal 0.555574 -0.831467 0
    outer loop
      vertex 3.53553 -3.53553 2
      vertex 1.91342 -4.6194 0
      vertex 3.53553 -3.53553 0
    endloop
  endfacet
  facet normal 0.195089 -0.980786 0
    outer loop
      vertex 0 -5 0
      vertex 1.91342 -4.6194 2
      vertex 0 -5 2
    endloop
  endfacet
  facet normal 0.195089 -0.980786 0
    outer loop
      vertex 1.91342 -4.6194 2
      vertex 0 -5 0
      vertex 1.91342 -4.6194 0
    endloop
  endfacet
  facet normal 0.831467 -0.555574 0
    outer loop
      vertex 3.53553 -3.53553 2
      vertex 4.6194 -1.91342 0
      vertex 4.6194 -1.91342 2
    endloop
  endfacet
  facet normal 0.831467 -0.555574 0
    outer loop
      vertex 4.6194 -1.91342 0
      vertex 3.53553 -3.53553 2
      vertex 3.53553 -3.53553 0
    endloop
  endfacet
  facet normal -0.831467 -0.555574 0
    outer loop
      vertex -3.53553 -3.53553 0
      vertex -4.6194 -1.91342 2
      vertex -4.6194 -1.91342 0
    endloop
  endfacet
  facet normal -0.831467 -0.555574 0
    outer loop
      vertex -4.6194 -1.91342 2
      vertex -3.53553 -3.53553 0
      vertex -3.53553 -3.53553 2
    endloop
  endfacet
  facet normal 0.980786 -0.195089 0
    outer loop
      vertex 4.6194 -1.91342 2
      vertex 5 0 0
      vertex 5 0 2
    endloop
  endfacet
  facet normal 0.980786 -0.195089 0
    outer loop
      vertex 5 0 0
      vertex 4.6194 -1.91342 2
      vertex 4.6194 -1.91342 0
    endloop
  endfacet
  facet normal -0.809016 -0.587786 0
    outer loop
      vertex 1 0 0
      vertex 0.309016 0.951056 2
      vertex 0.309016 0.951056 0
    endloop
  endfacet
  facet normal -0.809016 -0.587786 0
    outer loop
      vertex 0.309016 0.951056 2
      vertex 1 0 0
      vertex 1 0 2
    endloop
  endfacet
  facet normal 1 -0 0
    outer loop
      vertex -0.809016 -0.587785 2
      vertex -0.809016 0.587785 0
      vertex -0.809016 0.587785 2
    endloop
  endfacet
  facet normal 1 0 0
    outer loop
      vertex -0.809016 0.587785 0
      vertex -0.809016 -0.587785 2
      vertex -0.809016 -0.587785 0
    endloop
  endfacet
  facet normal 0.309017 -0.951056 0
    outer loop
      vertex -0.809016 0.587785 0
      vertex 0.309016 0.951056 2
      vertex -0.809016 0.587785 2
    endloop
  endfacet
  facet normal 0.309017 -0.951056 0
    outer loop
      vertex 0.309016 0.951056 2
      vertex -0.809016 0.587785 0
      vertex 0.309016 0.951056 0
    endloop
  endfacet
  facet normal 0.309017 0.951056 -0
    outer loop
      vertex 0.309016 -0.951056 0
      vertex -0.809016 -0.587785 2
      vertex 0.309016 -0.951056 2
    endloop
  endfacet
  facet normal 0.309017 0.951056 0
    outer loop
      vertex -0.809016 -0.587785 2
      vertex 0.309016 -0.951056 0
      vertex -0.809016 -0.587785 0
    endloop
  endfacet
  facet normal -0.809016 0.587786 0
    outer loop
      vertex 0.309016 -0.951056 0
      vertex 1 0 2
      vertex 1 0 0
    endloop
  endfacet
  facet normal -0.809016 0.587786 0
    outer loop
      vertex 1 0 2
      vertex 0.309016 -0.951056 0
      vertex 0.309016 -0.951056 2
    endloop
  endfacet
  facet normal 0.980786 0.195089 0
    outer loop
      vertex 49.5 0 2
      vertex 49.1194 1.91342 0
      vertex 49.1194 1.91342 2
    endloop
  endfacet
  facet normal 0.980786 0.195089 0
    outer loop
      vertex 49.1194 1.91342 0
      vertex 49.5 0 2
      vertex 49.5 0 0
    endloop
  endfacet
  facet normal -0.980788 0.195079 0
    outer loop
      vertex 39.5 0 0
      vertex 39.6989 1 2
      vertex 39.6989 1 0
    endloop
  endfacet
  facet normal -0.980788 0.195079 0
    outer loop
      vertex 39.6989 1 2
      vertex 39.5 0 0
      vertex 39.5 0 2
    endloop
  endfacet
  facet normal 0.195091 0.980785 -0
    outer loop
      vertex 46.4134 4.6194 0
      vertex 44.5 5 2
      vertex 46.4134 4.6194 2
    endloop
  endfacet
  facet normal 0.195091 0.980785 0
    outer loop
      vertex 44.5 5 2
      vertex 46.4134 4.6194 0
      vertex 44.5 5 0
    endloop
  endfacet
  facet normal 0.83146 0.555585 0
    outer loop
      vertex 49.1194 1.91342 2
      vertex 48.0355 3.53553 0
      vertex 48.0355 3.53553 2
    endloop
  endfacet
  facet normal 0.83146 0.555585 0
    outer loop
      vertex 48.0355 3.53553 0
      vertex 49.1194 1.91342 2
      vertex 49.1194 1.91342 0
    endloop
  endfacet
  facet normal -0.195091 -0.980785 0
    outer loop
      vertex 42.5866 -4.6194 0
      vertex 44.5 -5 2
      vertex 42.5866 -4.6194 2
    endloop
  endfacet
  facet normal -0.195091 -0.980785 -0
    outer loop
      vertex 44.5 -5 2
      vertex 42.5866 -4.6194 0
      vertex 44.5 -5 0
    endloop
  endfacet
  facet normal 0.555576 0.831465 -0
    outer loop
      vertex 48.0355 3.53553 0
      vertex 46.4134 4.6194 2
      vertex 48.0355 3.53553 2
    endloop
  endfacet
  facet normal 0.555576 0.831465 0
    outer loop
      vertex 46.4134 4.6194 2
      vertex 48.0355 3.53553 0
      vertex 46.4134 4.6194 0
    endloop
  endfacet
  facet normal -0.555603 0.831448 0
    outer loop
      vertex 41.5 3.89337 0
      vertex 40.9645 3.53553 2
      vertex 41.5 3.89337 2
    endloop
  endfacet
  facet normal -0.555603 0.831448 0
    outer loop
      vertex 40.9645 3.53553 2
      vertex 41.5 3.89337 0
      vertex 40.9645 3.53553 0
    endloop
  endfacet
  facet normal -0.831419 0.555646 0
    outer loop
      vertex 40.6066 3 0
      vertex 40.9645 3.53553 2
      vertex 40.9645 3.53553 0
    endloop
  endfacet
  facet normal -0.831419 0.555646 0
    outer loop
      vertex 40.9645 3.53553 2
      vertex 40.6066 3 0
      vertex 40.6066 3 2
    endloop
  endfacet
  facet normal -0.195088 0.980786 0
    outer loop
      vertex 44.5 5 0
      vertex 43.5 4.80109 2
      vertex 44.5 5 2
    endloop
  endfacet
  facet normal -0.195088 0.980786 0
    outer loop
      vertex 43.5 4.80109 2
      vertex 44.5 5 0
      vertex 43.5 4.80109 0
    endloop
  endfacet
  facet normal -0.555576 -0.831465 0
    outer loop
      vertex 40.9645 -3.53553 0
      vertex 42.5866 -4.6194 2
      vertex 40.9645 -3.53553 2
    endloop
  endfacet
  facet normal -0.555576 -0.831465 -0
    outer loop
      vertex 42.5866 -4.6194 2
      vertex 40.9645 -3.53553 0
      vertex 42.5866 -4.6194 0
    endloop
  endfacet
  facet normal -0.980786 -0.195089 0
    outer loop
      vertex 39.8806 -1.91342 0
      vertex 39.5 0 2
      vertex 39.5 0 0
    endloop
  endfacet
  facet normal -0.980786 -0.195089 0
    outer loop
      vertex 39.5 0 2
      vertex 39.8806 -1.91342 0
      vertex 39.8806 -1.91342 2
    endloop
  endfacet
  facet normal 0.555576 -0.831465 0
    outer loop
      vertex 46.4134 -4.6194 0
      vertex 48.0355 -3.53553 2
      vertex 46.4134 -4.6194 2
    endloop
  endfacet
  facet normal 0.555576 -0.831465 0
    outer loop
      vertex 48.0355 -3.53553 2
      vertex 46.4134 -4.6194 0
      vertex 48.0355 -3.53553 0
    endloop
  endfacet
  facet normal 0.195091 -0.980785 0
    outer loop
      vertex 44.5 -5 0
      vertex 46.4134 -4.6194 2
      vertex 44.5 -5 2
    endloop
  endfacet
  facet normal 0.195091 -0.980785 0
    outer loop
      vertex 46.4134 -4.6194 2
      vertex 44.5 -5 0
      vertex 46.4134 -4.6194 0
    endloop
  endfacet
  facet normal 0.83146 -0.555585 0
    outer loop
      vertex 48.0355 -3.53553 2
      vertex 49.1194 -1.91342 0
      vertex 49.1194 -1.91342 2
    endloop
  endfacet
  facet normal 0.83146 -0.555585 0
    outer loop
      vertex 49.1194 -1.91342 0
      vertex 48.0355 -3.53553 2
      vertex 48.0355 -3.53553 0
    endloop
  endfacet
  facet normal -0.83146 -0.555585 0
    outer loop
      vertex 40.9645 -3.53553 0
      vertex 39.8806 -1.91342 2
      vertex 39.8806 -1.91342 0
    endloop
  endfacet
  facet normal -0.83146 -0.555585 0
    outer loop
      vertex 39.8806 -1.91342 2
      vertex 40.9645 -3.53553 0
      vertex 40.9645 -3.53553 2
    endloop
  endfacet
  facet normal 0.980786 -0.195089 0
    outer loop
      vertex 49.1194 -1.91342 2
      vertex 49.5 0 0
      vertex 49.5 0 2
    endloop
  endfacet
  facet normal 0.980786 -0.195089 0
    outer loop
      vertex 49.5 0 0
      vertex 49.1194 -1.91342 2
      vertex 49.1194 -1.91342 0
    endloop
  endfacet
  facet normal -0.80901 -0.587795 0
    outer loop
      vertex 45.5 0 0
      vertex 44.809 0.951056 2
      vertex 44.809 0.951056 0
    endloop
  endfacet
  facet normal -0.80901 -0.587795 0
    outer loop
      vertex 44.809 0.951056 2
      vertex 45.5 0 0
      vertex 45.5 0 2
    endloop
  endfacet
  facet normal 1 -0 0
    outer loop
      vertex 43.691 -0.587785 2
      vertex 43.691 0.587785 0
      vertex 43.691 0.587785 2
    endloop
  endfacet
  facet normal 1 0 0
    outer loop
      vertex 43.691 0.587785 0
      vertex 43.691 -0.587785 2
      vertex 43.691 -0.587785 0
    endloop
  endfacet
  facet normal 0.309025 -0.951054 0
    outer loop
      vertex 43.691 0.587785 0
      vertex 44.809 0.951056 2
      vertex 43.691 0.587785 2
    endloop
  endfacet
  facet normal 0.309025 -0.951054 0
    outer loop
      vertex 44.809 0.951056 2
      vertex 43.691 0.587785 0
      vertex 44.809 0.951056 0
    endloop
  endfacet
  facet normal 0.309025 0.951054 -0
    outer loop
      vertex 44.809 -0.951056 0
      vertex 43.691 -0.587785 2
      vertex 44.809 -0.951056 2
    endloop
  endfacet
  facet normal 0.309025 0.951054 0
    outer loop
      vertex 43.691 -0.587785 2
      vertex 44.809 -0.951056 0
      vertex 43.691 -0.587785 0
    endloop
  endfacet
  facet normal -0.80901 0.587795 0
    outer loop
      vertex 44.809 -0.951056 0
      vertex 45.5 0 2
      vertex 45.5 0 0
    endloop
  endfacet
  facet normal -0.80901 0.587795 0
    outer loop
      vertex 45.5 0 2
      vertex 44.809 -0.951056 0
      vertex 44.809 -0.951056 2
    endloop
  endfacet
  facet normal 0.980785 0.195091 0
    outer loop
      vertex 5 73.2 2
      vertex 4.6194 75.1134 0
      vertex 4.6194 75.1134 2
    endloop
  endfacet
  facet normal 0.980785 0.195091 0
    outer loop
      vertex 4.6194 75.1134 0
      vertex 5 73.2 2
      vertex 5 73.2 0
    endloop
  endfacet
  facet normal -0.980785 0.195091 0
    outer loop
      vertex -5 73.2 0
      vertex -4.6194 75.1134 2
      vertex -4.6194 75.1134 0
    endloop
  endfacet
  facet normal -0.980785 0.195091 0
    outer loop
      vertex -4.6194 75.1134 2
      vertex -5 73.2 0
      vertex -5 73.2 2
    endloop
  endfacet
  facet normal 0.195089 0.980786 -0
    outer loop
      vertex 1.91342 77.8194 0
      vertex 0 78.2 2
      vertex 1.91342 77.8194 2
    endloop
  endfacet
  facet normal 0.195089 0.980786 0
    outer loop
      vertex 0 78.2 2
      vertex 1.91342 77.8194 0
      vertex 0 78.2 0
    endloop
  endfacet
  facet normal 0.831465 0.555576 0
    outer loop
      vertex 4.6194 75.1134 2
      vertex 3.53553 76.7355 0
      vertex 3.53553 76.7355 2
    endloop
  endfacet
  facet normal 0.831465 0.555576 0
    outer loop
      vertex 3.53553 76.7355 0
      vertex 4.6194 75.1134 2
      vertex 4.6194 75.1134 0
    endloop
  endfacet
  facet normal -0.195089 -0.980786 0
    outer loop
      vertex -1.91342 68.5806 0
      vertex 0 68.2 2
      vertex -1.91342 68.5806 2
    endloop
  endfacet
  facet normal -0.195089 -0.980786 -0
    outer loop
      vertex 0 68.2 2
      vertex -1.91342 68.5806 0
      vertex 0 68.2 0
    endloop
  endfacet
  facet normal 0.555585 0.83146 -0
    outer loop
      vertex 3.53553 76.7355 0
      vertex 1.91342 77.8194 2
      vertex 3.53553 76.7355 2
    endloop
  endfacet
  facet normal 0.555585 0.83146 0
    outer loop
      vertex 1.91342 77.8194 2
      vertex 3.53553 76.7355 0
      vertex 1.91342 77.8194 0
    endloop
  endfacet
  facet normal -0.555585 0.83146 0
    outer loop
      vertex -1.91342 77.8194 0
      vertex -3.53553 76.7355 2
      vertex -1.91342 77.8194 2
    endloop
  endfacet
  facet normal -0.555585 0.83146 0
    outer loop
      vertex -3.53553 76.7355 2
      vertex -1.91342 77.8194 0
      vertex -3.53553 76.7355 0
    endloop
  endfacet
  facet normal -0.831465 0.555576 0
    outer loop
      vertex -4.6194 75.1134 0
      vertex -3.53553 76.7355 2
      vertex -3.53553 76.7355 0
    endloop
  endfacet
  facet normal -0.831465 0.555576 0
    outer loop
      vertex -3.53553 76.7355 2
      vertex -4.6194 75.1134 0
      vertex -4.6194 75.1134 2
    endloop
  endfacet
  facet normal -0.195089 0.980786 0
    outer loop
      vertex 0 78.2 0
      vertex -1.91342 77.8194 2
      vertex 0 78.2 2
    endloop
  endfacet
  facet normal -0.195089 0.980786 0
    outer loop
      vertex -1.91342 77.8194 2
      vertex 0 78.2 0
      vertex -1.91342 77.8194 0
    endloop
  endfacet
  facet normal -0.555585 -0.83146 0
    outer loop
      vertex -3.53553 69.6645 0
      vertex -1.91342 68.5806 2
      vertex -3.53553 69.6645 2
    endloop
  endfacet
  facet normal -0.555585 -0.83146 -0
    outer loop
      vertex -1.91342 68.5806 2
      vertex -3.53553 69.6645 0
      vertex -1.91342 68.5806 0
    endloop
  endfacet
  facet normal -0.980785 -0.195091 0
    outer loop
      vertex -4.6194 71.2866 0
      vertex -5 73.2 2
      vertex -5 73.2 0
    endloop
  endfacet
  facet normal -0.980785 -0.195091 0
    outer loop
      vertex -5 73.2 2
      vertex -4.6194 71.2866 0
      vertex -4.6194 71.2866 2
    endloop
  endfacet
  facet normal 0.555646 -0.831419 0
    outer loop
      vertex 3 69.3066 0
      vertex 3.53553 69.6645 2
      vertex 3 69.3066 2
    endloop
  endfacet
  facet normal 0.555646 -0.831419 0
    outer loop
      vertex 3.53553 69.6645 2
      vertex 3 69.3066 0
      vertex 3.53553 69.6645 0
    endloop
  endfacet
  facet normal 0.195079 -0.980788 0
    outer loop
      vertex 0 68.2 0
      vertex 1 68.3989 2
      vertex 0 68.2 2
    endloop
  endfacet
  facet normal 0.195079 -0.980788 0
    outer loop
      vertex 1 68.3989 2
      vertex 0 68.2 0
      vertex 1 68.3989 0
    endloop
  endfacet
  facet normal 0.831448 -0.555603 0
    outer loop
      vertex 3.53553 69.6645 2
      vertex 3.89337 70.2 0
      vertex 3.89337 70.2 2
    endloop
  endfacet
  facet normal 0.831448 -0.555603 0
    outer loop
      vertex 3.89337 70.2 0
      vertex 3.53553 69.6645 2
      vertex 3.53553 69.6645 0
    endloop
  endfacet
  facet normal -0.831465 -0.555576 0
    outer loop
      vertex -3.53553 69.6645 0
      vertex -4.6194 71.2866 2
      vertex -4.6194 71.2866 0
    endloop
  endfacet
  facet normal -0.831465 -0.555576 0
    outer loop
      vertex -4.6194 71.2866 2
      vertex -3.53553 69.6645 0
      vertex -3.53553 69.6645 2
    endloop
  endfacet
  facet normal 0.980786 -0.195088 0
    outer loop
      vertex 4.80109 72.2 2
      vertex 5 73.2 0
      vertex 5 73.2 2
    endloop
  endfacet
  facet normal 0.980786 -0.195088 0
    outer loop
      vertex 5 73.2 0
      vertex 4.80109 72.2 2
      vertex 4.80109 72.2 0
    endloop
  endfacet
  facet normal -0.809029 -0.587768 0
    outer loop
      vertex 1 73.2 0
      vertex 0.309016 74.1511 2
      vertex 0.309016 74.1511 0
    endloop
  endfacet
  facet normal -0.809029 -0.587768 0
    outer loop
      vertex 0.309016 74.1511 2
      vertex 1 73.2 0
      vertex 1 73.2 2
    endloop
  endfacet
  facet normal 1 -0 0
    outer loop
      vertex -0.809016 72.6122 2
      vertex -0.809016 73.7878 0
      vertex -0.809016 73.7878 2
    endloop
  endfacet
  facet normal 1 0 0
    outer loop
      vertex -0.809016 73.7878 0
      vertex -0.809016 72.6122 2
      vertex -0.809016 72.6122 0
    endloop
  endfacet
  facet normal 0.30904 -0.951049 0
    outer loop
      vertex -0.809016 73.7878 0
      vertex 0.309016 74.1511 2
      vertex -0.809016 73.7878 2
    endloop
  endfacet
  facet normal 0.30904 -0.951049 0
    outer loop
      vertex 0.309016 74.1511 2
      vertex -0.809016 73.7878 0
      vertex 0.309016 74.1511 0
    endloop
  endfacet
  facet normal 0.30904 0.951049 -0
    outer loop
      vertex 0.309016 72.2489 0
      vertex -0.809016 72.6122 2
      vertex 0.309016 72.2489 2
    endloop
  endfacet
  facet normal 0.30904 0.951049 0
    outer loop
      vertex -0.809016 72.6122 2
      vertex 0.309016 72.2489 0
      vertex -0.809016 72.6122 0
    endloop
  endfacet
  facet normal -0.809029 0.587768 0
    outer loop
      vertex 0.309016 72.2489 0
      vertex 1 73.2 2
      vertex 1 73.2 0
    endloop
  endfacet
  facet normal -0.809029 0.587768 0
    outer loop
      vertex 1 73.2 2
      vertex 0.309016 72.2489 0
      vertex 0.309016 72.2489 2
    endloop
  endfacet
  facet normal 0.980785 0.195091 0
    outer loop
      vertex 49.5 73.2 2
      vertex 49.1194 75.1134 0
      vertex 49.1194 75.1134 2
    endloop
  endfacet
  facet normal 0.980785 0.195091 0
    outer loop
      vertex 49.1194 75.1134 0
      vertex 49.5 73.2 2
      vertex 49.5 73.2 0
    endloop
  endfacet
  facet normal -0.980785 0.195091 0
    outer loop
      vertex 39.5 73.2 0
      vertex 39.8806 75.1134 2
      vertex 39.8806 75.1134 0
    endloop
  endfacet
  facet normal -0.980785 0.195091 0
    outer loop
      vertex 39.8806 75.1134 2
      vertex 39.5 73.2 0
      vertex 39.5 73.2 2
    endloop
  endfacet
  facet normal 0.195091 0.980785 -0
    outer loop
      vertex 46.4134 77.8194 0
      vertex 44.5 78.2 2
      vertex 46.4134 77.8194 2
    endloop
  endfacet
  facet normal 0.195091 0.980785 0
    outer loop
      vertex 44.5 78.2 2
      vertex 46.4134 77.8194 0
      vertex 44.5 78.2 0
    endloop
  endfacet
  facet normal 0.831458 0.555587 0
    outer loop
      vertex 49.1194 75.1134 2
      vertex 48.0355 76.7355 0
      vertex 48.0355 76.7355 2
    endloop
  endfacet
  facet normal 0.831458 0.555587 0
    outer loop
      vertex 48.0355 76.7355 0
      vertex 49.1194 75.1134 2
      vertex 49.1194 75.1134 0
    endloop
  endfacet
  facet normal -0.195079 -0.980788 0
    outer loop
      vertex 43.5 68.3989 0
      vertex 44.5 68.2 2
      vertex 43.5 68.3989 2
    endloop
  endfacet
  facet normal -0.195079 -0.980788 -0
    outer loop
      vertex 44.5 68.2 2
      vertex 43.5 68.3989 0
      vertex 44.5 68.2 0
    endloop
  endfacet
  facet normal 0.555587 0.831458 -0
    outer loop
      vertex 48.0355 76.7355 0
      vertex 46.4134 77.8194 2
      vertex 48.0355 76.7355 2
    endloop
  endfacet
  facet normal 0.555587 0.831458 0
    outer loop
      vertex 46.4134 77.8194 2
      vertex 48.0355 76.7355 0
      vertex 46.4134 77.8194 0
    endloop
  endfacet
  facet normal -0.555587 0.831458 0
    outer loop
      vertex 42.5866 77.8194 0
      vertex 40.9645 76.7355 2
      vertex 42.5866 77.8194 2
    endloop
  endfacet
  facet normal -0.555587 0.831458 0
    outer loop
      vertex 40.9645 76.7355 2
      vertex 42.5866 77.8194 0
      vertex 40.9645 76.7355 0
    endloop
  endfacet
  facet normal -0.831458 0.555587 0
    outer loop
      vertex 39.8806 75.1134 0
      vertex 40.9645 76.7355 2
      vertex 40.9645 76.7355 0
    endloop
  endfacet
  facet normal -0.831458 0.555587 0
    outer loop
      vertex 40.9645 76.7355 2
      vertex 39.8806 75.1134 0
      vertex 39.8806 75.1134 2
    endloop
  endfacet
  facet normal -0.195091 0.980785 0
    outer loop
      vertex 44.5 78.2 0
      vertex 42.5866 77.8194 2
      vertex 44.5 78.2 2
    endloop
  endfacet
  facet normal -0.195091 0.980785 0
    outer loop
      vertex 42.5866 77.8194 2
      vertex 44.5 78.2 0
      vertex 42.5866 77.8194 0
    endloop
  endfacet
  facet normal -0.555667 -0.831405 0
    outer loop
      vertex 40.9645 69.6645 0
      vertex 41.5 69.3066 2
      vertex 40.9645 69.6645 2
    endloop
  endfacet
  facet normal -0.555667 -0.831405 -0
    outer loop
      vertex 41.5 69.3066 2
      vertex 40.9645 69.6645 0
      vertex 41.5 69.3066 0
    endloop
  endfacet
  facet normal -0.980788 -0.195079 0
    outer loop
      vertex 39.6989 72.2 0
      vertex 39.5 73.2 2
      vertex 39.5 73.2 0
    endloop
  endfacet
  facet normal -0.980788 -0.195079 0
    outer loop
      vertex 39.5 73.2 2
      vertex 39.6989 72.2 0
      vertex 39.6989 72.2 2
    endloop
  endfacet
  facet normal 0.555587 -0.831458 0
    outer loop
      vertex 46.4134 68.5806 0
      vertex 48.0355 69.6645 2
      vertex 46.4134 68.5806 2
    endloop
  endfacet
  facet normal 0.555587 -0.831458 0
    outer loop
      vertex 48.0355 69.6645 2
      vertex 46.4134 68.5806 0
      vertex 48.0355 69.6645 0
    endloop
  endfacet
  facet normal 0.195091 -0.980785 0
    outer loop
      vertex 44.5 68.2 0
      vertex 46.4134 68.5806 2
      vertex 44.5 68.2 2
    endloop
  endfacet
  facet normal 0.195091 -0.980785 0
    outer loop
      vertex 46.4134 68.5806 2
      vertex 44.5 68.2 0
      vertex 46.4134 68.5806 0
    endloop
  endfacet
  facet normal 0.831458 -0.555587 0
    outer loop
      vertex 48.0355 69.6645 2
      vertex 49.1194 71.2866 0
      vertex 49.1194 71.2866 2
    endloop
  endfacet
  facet normal 0.831458 -0.555587 0
    outer loop
      vertex 49.1194 71.2866 0
      vertex 48.0355 69.6645 2
      vertex 48.0355 69.6645 0
    endloop
  endfacet
  facet normal -0.831405 -0.555667 0
    outer loop
      vertex 40.9645 69.6645 0
      vertex 40.6066 70.2 2
      vertex 40.6066 70.2 0
    endloop
  endfacet
  facet normal -0.831405 -0.555667 0
    outer loop
      vertex 40.6066 70.2 2
      vertex 40.9645 69.6645 0
      vertex 40.9645 69.6645 2
    endloop
  endfacet
  facet normal 0.980785 -0.195091 0
    outer loop
      vertex 49.1194 71.2866 2
      vertex 49.5 73.2 0
      vertex 49.5 73.2 2
    endloop
  endfacet
  facet normal 0.980785 -0.195091 0
    outer loop
      vertex 49.5 73.2 0
      vertex 49.1194 71.2866 2
      vertex 49.1194 71.2866 0
    endloop
  endfacet
  facet normal -0.809023 -0.587777 0
    outer loop
      vertex 45.5 73.2 0
      vertex 44.809 74.1511 2
      vertex 44.809 74.1511 0
    endloop
  endfacet
  facet normal -0.809023 -0.587777 0
    outer loop
      vertex 44.809 74.1511 2
      vertex 45.5 73.2 0
      vertex 45.5 73.2 2
    endloop
  endfacet
  facet normal 1 -0 0
    outer loop
      vertex 43.691 72.6122 2
      vertex 43.691 73.7878 0
      vertex 43.691 73.7878 2
    endloop
  endfacet
  facet normal 1 0 0
    outer loop
      vertex 43.691 73.7878 0
      vertex 43.691 72.6122 2
      vertex 43.691 72.6122 0
    endloop
  endfacet
  facet normal 0.309048 -0.951047 0
    outer loop
      vertex 43.691 73.7878 0
      vertex 44.809 74.1511 2
      vertex 43.691 73.7878 2
    endloop
  endfacet
  facet normal 0.309048 -0.951047 0
    outer loop
      vertex 44.809 74.1511 2
      vertex 43.691 73.7878 0
      vertex 44.809 74.1511 0
    endloop
  endfacet
  facet normal 0.309048 0.951047 -0
    outer loop
      vertex 44.809 72.2489 0
      vertex 43.691 72.6122 2
      vertex 44.809 72.2489 2
    endloop
  endfacet
  facet normal 0.309048 0.951047 0
    outer loop
      vertex 43.691 72.6122 2
      vertex 44.809 72.2489 0
      vertex 43.691 72.6122 0
    endloop
  endfacet
  facet normal -0.809023 0.587777 0
    outer loop
      vertex 44.809 72.2489 0
      vertex 45.5 73.2 2
      vertex 45.5 73.2 0
    endloop
  endfacet
  facet normal -0.809023 0.587777 0
    outer loop
      vertex 45.5 73.2 2
      vertex 44.809 72.2489 0
      vertex 44.809 72.2489 2
    endloop
  endfacet
  facet normal -1 0 0
    outer loop
      vertex 1 4.80109 0
      vertex 1 68.3989 2
      vertex 1 68.3989 0
    endloop
  endfacet
  facet normal -1 -0 0
    outer loop
      vertex 1 68.3989 2
      vertex 1 4.80109 0
      vertex 1 4.80109 2
    endloop
  endfacet
  facet normal 1 -0 0
    outer loop
      vertex 43.5 4.80109 2
      vertex 43.5 68.3989 0
      vertex 43.5 68.3989 2
    endloop
  endfacet
  facet normal 1 0 0
    outer loop
      vertex 43.5 68.3989 0
      vertex 43.5 4.80109 2
      vertex 43.5 4.80109 0
    endloop
  endfacet
  facet normal 0 1 -0
    outer loop
      vertex 39.6989 72.2 0
      vertex 4.80109 72.2 2
      vertex 39.6989 72.2 2
    endloop
  endfacet
  facet normal 0 1 0
    outer loop
      vertex 4.80109 72.2 2
      vertex 39.6989 72.2 0
      vertex 4.80109 72.2 0
    endloop
  endfacet
  facet normal 0 -1 0
    outer loop
      vertex 4.80109 1 0
      vertex 39.6989 1 2
      vertex 4.80109 1 2
    endloop
  endfacet
  facet normal 0 -1 -0
    outer loop
      vertex 39.6989 1 2
      vertex 4.80109 1 0
      vertex 39.6989 1 0
    endloop
  endfacet
  facet normal 1 -0 0
    outer loop
      vertex 3 3.89337 2
      vertex 3 69.3066 0
      vertex 3 69.3066 2
    endloop
  endfacet
  facet normal 1 0 0
    outer loop
      vertex 3 69.3066 0
      vertex 3 3.89337 2
      vertex 3 3.89337 0
    endloop
  endfacet
  facet normal -1 0 0
    outer loop
      vertex 41.5 3.89337 0
      vertex 41.5 69.3066 2
      vertex 41.5 69.3066 0
    endloop
  endfacet
  facet normal -1 -0 0
    outer loop
      vertex 41.5 69.3066 2
      vertex 41.5 3.89337 0
      vertex 41.5 3.89337 2
    endloop
  endfacet
  facet normal 0 -1 0
    outer loop
      vertex 3.89337 70.2 0
      vertex 40.6066 70.2 2
      vertex 3.89337 70.2 2
    endloop
  endfacet
  facet normal 0 -1 -0
    outer loop
      vertex 40.6066 70.2 2
      vertex 3.89337 70.2 0
      vertex 40.6066 70.2 0
    endloop
  endfacet
  facet normal 0 1 -0
    outer loop
      vertex 40.6066 3 0
      vertex 3.89337 3 2
      vertex 40.6066 3 2
    endloop
  endfacet
  facet normal 0 1 0
    outer loop
      vertex 3.89337 3 2
      vertex 40.6066 3 0
      vertex 3.89337 3 0
    endloop
  endfacet
endsolid OpenSCAD_Model
